<?xml version="1.0" encoding="UTF-8"?>
<svg id="_圖層_1" data-name="圖層 1" xmlns="http://www.w3.org/2000/svg" viewBox="0 0 113.39 137.13">
  <defs>
    <style>
      .cls-1 {
        fill: #eaebf1;
      }

      .cls-2 {
        fill: #fff;
      }

      .cls-3 {
        fill: #bebeb8;
      }

      .cls-4 {
        fill: #dfe1e6;
      }

      .cls-5 {
        fill: #f2f3f8;
      }

      .cls-6 {
        fill: #747c8a;
      }

      .cls-7 {
        fill: #515c6a;
      }

      .cls-8 {
        fill: #aa3f3e;
      }

      .cls-9 {
        fill: #d9dadd;
      }

      .cls-10 {
        fill: #e5c55f;
      }

      .cls-11 {
        fill: #cccdce;
      }

      .cls-12 {
        fill: #a8a5a0;
      }

      .cls-13 {
        fill: #3b825c;
      }

      .cls-14 {
        fill: #ddd3bf;
      }

      .cls-15 {
        fill: #5ab685;
      }

      .cls-16 {
        fill: #89caa9;
      }

      .cls-17 {
        fill: #15191d;
      }
    </style>
  </defs>
  <g>
    <path class="cls-5" d="M73.15,59.49s8.84-5.86,12.1-9.73c0,0,7.43-1.5,9.02,3.11,0,0-11.54,10.5-15.8,9-4.26-1.5-5.32-2.38-5.32-2.38Z"/>
    <g>
      <path class="cls-2" d="M39.54,66.95c.5,.64,1.13,1.14,1.77,1.81,.72-.55-.08-.86,.26-1.99,.2,.38,.79,.66,1.02,1.03,.82,1.34,1.77,1.99,1.81,2.2,.1,.49,.55,.75,.9,1.1l.18,.18c1.1,1.11,2.15,2.32,3.44,3.2,.04,.04,2.93,2.61,2.89,2.58,2,1.62,3.98,3.28,6.14,4.69,.16,.31,.41,.58,.74,.72,.05,.02,.12-.02,.16,0,.07,.18,.21,.31,.39,.37l.34,.17c.07,.05,.11,.17,.19,.2,.18,.05,.23,.22,.34,.33,.75,.8,1.67,1.76,2.72,2.03,.03,0,.11,.04,.14,.02-.14,.22,.14,.16,.24,.16,0,.04,.02,.09,0,.13-.1,.37,.16,.43,.39,.56,1.86,1.09,3.48,2.57,5.28,3.86,.43,.31,.5,.46,.64,.86,.33,.95,.75,1.95,1.27,2.88,.27,.26,2.1,1.4,2.11,1.44,.09,.33,.24,.99-.15,1.06-1.03,.16-2.15-2.08-3.09-1.47-.4,.26-.83,.71-1.16,1.04-.34,.35,.52,.76,.55,1.06,.47,4.03,2,2.7,2.77,6.13-.12,.21-.39,.45-.46,.61-.12,.25,.27,.62,.26,.82-.07,1.25-1.65,1.33-2.34,1.97s-2.23,3.88-4.84,3.41c-1.44-.26-1.59,.77-3.39,1.26-.3,1.3-4.42,1.26-5.21,1.43l-1.86,.4c-.65,.14-2.54,1.11-1.64,1.6,.52,.28,1.2,.3,1.58,.78,.18,.23,.06,.65-.04,.84-.12,.23-.56,.05-.82,.21-.4,.24-.12,.86-.19,1.21l-.49,.05h-.59c-.35-.92-1.46-.11-1.8-1.14-.11-.33-.41-.44-.68-.48-.06-.07-.12-.14-.19-.2,.05-.19,.01-.41,.08-.6,.32-.89,.3-2.02,.02-2.96s-.95-1.6-1.42-2.38c-1.68-2.8-3.55-1.84-5.51-3.56-.27-.24-.72-.17-.99-.27-.75-.26-1.75-.23-2.36-.89-.45-.48-.92-.72-1.46-1.09-.71-.48-1.09-1.38-1.74-1.88,.02-.63-.5-1.15-.73-1.78l-.53-1.46-.95-3.3c-.13-.47,.68-1.2-.07-1.68,.7-1.57-.22-1.17,.46-2.91,.04-.05,.11-.1,.12-.16,.01-.11,.01-.29-.13-.26,.1-.38,.17-.84,.15-1.24,.61-.34,.52-1.12,.58-1.81s.5-3.36-.21-3.44c.03-.4,.06-.83,.2-1.21,.6-1.56,.97-3.2,1.49-4.91-.59,.04-.84,.58-.96,1.04-.23,.91-.87,1.45-1.31,2.15-1.29,2.06-1.94,2.62-4.04,3.59s-2.29,.16-2.76,.58c-.17,.15,.48,1.1,.03,.75-.14-.25-.6-.41-.58-.91-.16-.19-.55-.36-.73-.47-.45-.29-.93-.75-1.45-.92,0-.55,.61-.45,.97-.68,.6-.4,.96-1.16,1.7-1.38,1.2-.34,3.82-1.81,2.6-3.39-.27-.35-.48-.67-.85-.72-1.15-.14-1.42,.83-2.35,.9-.72,.05-.96,.67-1.42,.96-.66,.4-1.14,.79-1.39,1.53-.06,.19-.47,.35-.58,.47-.18,.21,.02,.54,0,.85-.05,.78-1.97-.18-1.75,.9-.37-.06-1.06-.06-1.43-.01-.04-.53,.33-.89,.64-1.33,1.53-2.17,2.89-1.9,2.64-3.07l-4.84,3.74c-.39,.3-.62,.85-1.12,.71-1.16-.81-1.88-.14-2.75-.8,.44-.73,1.33-1.04,2-1.62l.93-.82c-.59-.49-1.13-.67-1.5-1.13,.16-.35,.6-.36,.99-.5,10.46-3.83,10.77-7.01,15.9-10.83l1.59-1.18c.3,.26,.68,.16,1.09,.07,1.43-.3,2.86-.37,4.14,.15Zm-6.39,5.37c.38-.37,1.05-.25,1.6-.37,.34-.93,1.17-1.13,1.85-1.59,.83-.56,1.45-1.14,2.48-1.36,.28-.06-.06-.7-.25-.79-.72-.33-1.44-.26-2.15-.47-.51-.15-.85-.3-1.4,.01-1.8,1.03-3.23,2.52-4.61,4.04-.54,.6-.91,1.24-1.35,1.92-.36,.55-1.71,1.12-1.46,1.91,.16,.52,1.51,.89,2.5,.83,2.54-.15,2.07-2.28,2.79-4.14Zm3.29,5.55s-.04-.09-.09-.09-.09,.04-.09,.09,.04,.09,.09,.09,.09-.04,.09-.09Z"/>
      <path class="cls-17" d="M54.69,7.83c.34,.63,.46,1.36,1.06,2.02,.54-.28,1-.8,1.28-1.3,.06-.01,.13,0,.19-.02,.08-.02,.15-.08,.2-.14l.4-.16c1.24,.33,2.42,.82,3.23,1.92,.17,.23,.41,.04,.52,.07l.94,.25c-.07,.36,1.88,1.73,1.93,2.07-.24,.34,.08,.72,.37,.92l.05,.35c-.02,.19,0,.37,.03,.56,.01,.08,.02,.18,0,.26-.07,.51-.09,1.01-.2,1.53,.51-.51,.31-1.13,.42-1.62s.19-.94,.12-1.41l-.1-.72c1.77,.25,3.39,1.23,4.72,2.49,3.28-.37,3.05,2.79,3.92,2.99,2.33,.53,3.58,2.68,2.95,4.99-.19,.7-.19,1.42-.59,2.18,3.32,3.42,4.61,8.06,5.29,12.57-.27,.2-.04,.59-.08,.9-.05,.34-.38,.6-.48,.93-.43,1.42-1.66,.24-2.7,.61-.06,.5,3.99,.12,2.91,.67-1.92-.1-1.75-.28-3.98-.01h-.72l-.7,.02c-3.33,.08-2.69,2.57-4.52,3.78l-.02-.19c1.05-2.64,1.14-5.92-.85-8.08-1.41-1.54-3.96-2.08-5.88-.82-1.31,.86-2.09,2.19-2.33,3.65-.02,.12-.13,.22-.13,.36,0,.29,.03,.6,0,.89-.15,1.24,.23,2.45,.65,3.68-.03,.12-.25,.2-.32,.28-.36,0-.7,.15-1.05,.18-2.29-.95-2.71-.51-5.35-.57-1.91-.04-3.71,.66-5.3,1.56-.43-.04-.86,.07-1.29,0-.09-.02-.16-.16-.17-.24,0-.06,0-.12,0-.18,.91-2.14-.15-6.19-2.71-7.49s-5.25,.65-5.85,3.3c-.51,2.3,.06,4.47,1.14,6.47-.03,.03,0,0-.03,.03-1.27-.81-2.47-2.66-4.69-2.13l-.88,.21-2.85,.68c-1.1-1.28-.72-3.48-.78-4.8-.11-2.38,.61-7.51,2.2-9.32-.34-.2-.53-.27-.57-.48,.81,.06,2.26,.03,3.22-.28,4.54-1.44,8.81-3.61,12.48-6.61,1.21-.99,2.2-2.08,2.65-3.44,.2-.59,.45-1.17,0-1.86-.82-1.27-2.29-.8-3.37-.63-.27-.15-.69-.37-1.08-.23-.04-.37-.28-.62-.52-.9-.32-.37-.37-.9-.13-1.33l.28-.5c.78-.75,1.7-1.32,2.62-2.09-1.52-.04-2.39,1.14-3.18,2.12-.2,.24-.47,.44-.62,.72-.17,.33,.12,.59,.23,.89-1.39-.84-2.85-1.51-4.45-1.8,0-.17,.02-.36,.16-.54,.5-.48,.87-1.01,1.15-1.57l.13-.09c2.12-.17,1.35,.51,2.51-.54,.26-.24,.56-.43,1.02-.43,.31-.16,.21-.45,.33-.84,.17,.2,.35,.32,.29,.65-.24,.44-.48,.89-.65,1.36-.64,.41-.83,1.26-.72,1.98,.22-.26,.13-.5,.3-.66,.1-.09,.34-.04,.49-.13,.45-.27,.27-.86,.35-1.24,.07-.34,.47-.71,.77-.88,.32-.18,.72-.26,.74-.72l.18-.33c.44-.06,.64-.55,.73-.94,.33-.31,.65-.68,.88-1.07,.66-.5,1.36-.88,2.1-1.33l.99-.6c.23,0,.48,.09,.72,.12Zm.18,4.92c-.05,.08-.14,.18-.09,.36,1.85-.16,3.36,1.23,3.52,3.11,.63,0,1.18,.03,1.64-.15-2.5-.8-.76-1.01-2.77-2.73-.67-.57-1.4-.61-2.3-.58,.64-.56,1.62-.63,2.19-1.61-.26-.19-3.83,1.55-2.19,1.61Zm-3.59,.54c-.16,0-.5-.16-.56,.11-.04,.21,0,.32,.08,.4,.15,.13,.24-.13,.34-.17,.26-.01,.56,.03,.83,0-.08,.11,.13,.14,.2,.16l1,.28c.24,.07,.46-.41,.63-.63-.33,.17-.55,.13-.76-.02,.04-.13,.06-.27,.06-.38,0-.69-1.02,.18-1.83,.23Zm3.25-.07c-.08-.21-.29-.15-.46-.13-.1,.01-.17,.15-.03,.38,.12-.15,.23-.21,.5-.25Zm10.16,3.32c.02-.35-.33-.16-.53-.06-.17,.09-.28,.16-.22,.46,.1,.5,.28,.82,.7,.97-.04-.53,.01-.81,.05-1.37Zm-.21,1.79c0-.06-.05-.11-.11-.11s-.11,.05-.11,.11,.05,.11,.11,.11,.11-.05,.11-.11Zm-1.51,2.52c.61-.66-1.67-.04-1.24-.05,.47,.11,.83,.04,1.24,.05Zm-1.76-.08c-.13-.27-.72,.13-1.29,.14,.03,.3,1.49,.28,1.29-.14Zm4.38,7.52c.34-.68-2.74,1.38-2.24,1.47l2.22-.97c.14-.06,.36-.1,.5-.18,.24,.1,.39-.11,.57-.18,1.14-.46,2.42,0,2.5-.25,.21-.65-3.11-.08-3.55,.1Zm-2.22,1.69s-.04-.09-.09-.09-.09,.04-.09,.09,.04,.09,.09,.09,.09-.04,.09-.09Zm-.92,3.36c-.46,.29-1.04,.09-1.35-.23-.38-.39-.02-.96,.3-1.48-.44-.21-.6,.29-.76,.53-.15,.22-.08,1.49,.85,1.65,.43,.07,.75-.03,.95-.47Zm.42-.21c.44,.73,1.01,.35,1.43,.19,1.77-.67,3.48-1.14,5.38-1.26,.33-.02,.75-.12,.82-.59-2.42,.68-3.68,.6-6.12,1.27-.5,.14-.84,.49-1.52,.39Zm11.9,7.4l3.35-.27c.34-.25-3.92-.05-3.35,.27Z"/>
      <path class="cls-17" d="M48.91,18.86c-.21,.02-.41,.1-.64,.36-.14-.25-.28-.48-.47-.69,.06-.02,.14,0,.2-.03,.03,.21,.22,.38,.48,.29,.2-.06,.32,0,.42,.07Z"/>
      <path class="cls-5" d="M36.99,45.25c.05,.16,.21,.2,.36,.22,.08,.44-.06,.88-.31,1.3s.29,.96,.21,1.28c-.23,.9-.12,1.32,.44,1.97,.62,.71-.78,2.01,4.83,2.7,.8,.1,1.33,.75,2.05,1.03,1.25,.48,2.52,1.01,3.81,1.33,.73,.18,1.3-.59,1.33-1.06,.08-1.71-.97-1.14-.9-2.15,0-.12,.27-.11,.4-.13,.47,.15,.71,.74,1.14,.9-.31,.34,.18,.62,.27,.99l.66,2.69c.44-.26,.64-.42,.94-.38-.44-.05,2.37,1.36,3.29,1.66,.47,.15,.95,.34,1.23,.76,.49,.76,1.16,.71,1.93,.91,.89,.23,.69,1.55,.08,2.28,1.02,.19,1.85,.27,2.83,.54,.22-1.02,.87-1.65,1.86-1.74-.11-1.12,.46-1.65-.04-2.19-.07-.08-.46,.03-.55-.1-.49-.68-.98-1.72-.8-2.58l.26-1.22c.28-1.33,.86-1.67,1.04-2.86l.03-.17c.06,.04,.18,.04,.23-.01,.46,.03,.39,.78,.69,1.06,.59,.55,1.39,.08,1.99-.16,3.18-1.26,3.96-2.64,6.43-3.35,1.23-.35,2.15-1.63,1.72-2.79,.2-.26,.3-.59,.67-.78,.31,.6,.79,.85,1.27,.58,.75-.43,.62-.65,1.09-.51-.01,.23,.04,.49,.25,.57s.47,.18,.68,.14c-.05,.69-.08,1.39,.29,1.99-.3-.02-.58,.22-.87,.22-.46,0-.68,.31-1.02,.51-.39,.23-.47,.49-.58,1.06-.13,.69,1.51,1.32,2.19,1.74,.6,0,1.2-.63,1.87-.14,.29,.21,.26,.46,.12,.73-.29,.58-.73,.19-1.1,.56-.26-.18-.57-.21-.81-.46-.49-.51-1.4-.51-2.05-.64-.08-.15-.18-.31-.33-.31-.13,0-.38,0-.39,.11-.16,1.37,1.64,.42-1.57,5.36l-1.45,2.23c-.28,.44-.6,.87-.35,1.41,.32-.23,.39-.46,.63-.49,1.5-.17,3.22-2.13,4.68-1.76,.14,.04,.31,.02,.32,.15,0,.06-.03,.13-.04,.19-.29,.35-.42,.92-.67,1.31-.3,0-.5,.23-.47,.53,0,.05-.04,.11-.04,.16-.59,.02-1,.51-1.57,.79-.75,.37-1.78,.42-2.42,1.01-.51,.47-.86,1.08-1.6,1.11,.03-.13-.11-.28-.09-.41,.02-.1,.06-.22,.01-.37s-.43,.15-.51,.03l-.6-.9c-.26-.38-.78-.06-1.21,0l-3.1,.47c-1.08,.17-2.09,.27-3.17,.39-1.15,.12-2.32,.55-3.59,.52-1.38-.02-2.75-.29-4.18,0-.43,.09-1-.28-1.46-.08-.57,.25-.75-.36-1.15-.5-4.9-1.64-3.83,.56-5.22,.13-.47-.14-.99,.36-1.21,.69-1.26,.12-1.27-.43-2.36-.56-.24-.47-.84-.56-1.27-.69-.04-.23-2.01-2.42-2.16-2.52-.79-.52-1.04-1.29-1.34-2.12-.07-.18-.5-.26-.58-.41-.09-.17,.18-.58,.05-.77-1.57-.83-1.62,.48-2.87,.73-.16,.03-.17,.28,.02,.23-2.14,1.23-2.58,.06-2.88-.19,.21-.06,2.18-1.35,1.97-1.63,.38-.69,4.19-1.88,2.26-2.68-.26-.11-.48,.04-.74,.11-.33,.09-.8-.02-1.11,.17,.2-1.13,1.05-.93,1.09-1.9,.04,0,.34-.14,.28-.24-.15-.24-.42-.72-.74-.81-.48-.12-.86,.58-.81,.99-.65,.35-1.33,.65-2.03,.89,.03-.11-2.38-.43-2.11,.31-.51-.17-1.01-.43-1.11-.99,.33-.28,.77-.26,1.25-.4l1.08-.32c-.34,.1,3.31,.02,3.43-2.58,.12-.67-.37-1.46-.02-1.91,.32-.41,1.33-.06,1.15-.57l.88-.21Z"/>
      <path class="cls-17" d="M81.41,106.82c.03,.12,.3,.19,.29,.33,0,.11-.28,.08-.24,.28,1.02-.22,1.98-.19,2.93-.07l.31,.04c.05,.26,.3,.38,.55,.4,1.91,1.23,1.33,3.47,1.75,3.76,.36,.25,2.73-.07,3.93,1.72,.77,1.14,.66,2.64-.03,3.81-.62,1.04-1.52,1.81-2.55,2.47l-7.67,4.94c-2.09,1.34-4.67,1.69-6.82,.42l-5.27-3.11c-.13-.53-.7-.76-1.05-1.16,.05-.31-.29-.52-.35-.77-.1-.4,0-.85,0-1.25,0-.06,0-.12,.02-.18,.1-.46,.34-.86,.5-1.29,.13-.35,.52-.59,.71-.85,.02,.36-.03,.99,.37,1.24,1.26,.78,2.74-.33,4.13,.46,.33-.95-.88-3.34-.65-4.64,.45,.21-.12,.74,.37,.91-.11-1.43-.4-2.84,0-4.17,.16-.21,.74,0,.96,.1,.26,.13,.24,.68,.36,1,.22,.6,1.1,.73,1.63,.45l1.67-.88c.64-.34,.8-1.08,.48-1.7-.25-.48-.94-.64-1.54-.42-.39,.14-.69-.27-1.01-.3-.14-.02-.22,.29-.3,.32-.07,.03-.13-.21-.24-.29-.32-.24,1.32-.52,1.8-.44-.17-.26-.53-.16-.59-.44,.63-.06,1.33-.05,1.84,.31l.68,.48c.38,.27,.52-.31,.76-.4,.8-.3,1.47-.9,2.32-1.06Zm1.72,3.62c.64-.24,1.94-.63,1.99-1.32-.18-1.15-2.98-1.19-4.14-.33-.44,.33-.62,.82-.54,1.35,.08,.5,.46,.97,1.01,1.05,.7,.1,1-.49,1.67-.75Zm5.8,5.77c.17,.34,.54,.62,.88,.54,.69-.16,1.46-2.01,.54-3.17-.52-.66-1.47-1-2.35-.65-2.08,.82-3.78,2.24-5.4,3.8-.33,.31-.44,1.06-.36,1.5,1.27,.95,5.14-5.18,6.7-2.02Zm-9.39,4.76c.79-.89,2.68-1.66,1.8-2.54s-2.98,1.29-3.13,2.93c-.02,.23,.59,.21,.77,.2,.2-.02,.33-.32,.56-.58Z"/>
      <path class="cls-17" d="M38.43,109.59c.07-.19,1.26-1.66,1.94-1.33,.09,.28-.08,.55-.34,.89,3.19,1.2,1.87,1.31,2.76,2.03,.66,.53,.69,1.16,.71,2.09,.41-.53,.44-1.12,.96-1.44,.3,1.88-.72,2.53-.39,4.29,1-4.1,1.11-2.86,.44-6.53,.08,.07,.17,.12,.27,.18,0,.04,0,.1,.02,.14,.44,1.16,.36,2.4,.27,3.63-.04,.59-.52,1.23-.44,1.88,.03,.22-.11,.45-.04,.68-.25,.15-.36,.41-.38,.67,0-.1,.27,1.68,1.39,1.26,.41-.15,.79-.37,1.17-.59-.04-.41-.66-.35-.42-.6,.47,.18,.79,.57,1.17,.88,.09,.47,.49,.81,.51,1.29-.01,.05,.02,.11,.02,.16-.05,.42,0,.9-.19,1.29-.32,.66-1.06,1.02-1.29,1.72-1.82,.77-3.32,2.05-5.09,3.12-2.23,1.34-5.14,.83-7.11-.81-1.56-1.29-2.94-2.58-4.61-3.71-1.97-1.33-4.39-2.56-4.32-5.1,.03-1.16,.57-2.18,1.46-2.85,.9-.24,1.78-.51,2.88-.29-.47,.4-.98,.56-1.57,.75,.04,.93,2.21,3.17,2.74,3.59,1.52,1.22,1.4,2.92,3.88,3.35,.05-1-.58-1.45-.97-2.11-1.03-1.76-2.22-3.32-3.44-4.94-.15-.2,.21-.88-.45-.92,.58,.33,.66-2.78,.53-2.48,.24-.81,.79-1.47,1.46-1.97,.21-.08,.54-.03,.75-.17,.13-.05,.15,.14,.26,.26-.22,.19-.51,.35-.58,.61-.35,1.36,1.34,1.04,3.08,2.61,1.06,.95,1.52,3.31,2.4,3.28,.63-.02,.69-.98,.42-1.42-1-1.61,.17-1.71-.77-3.56,.49,.07,.42,.47,.61,.91,.24-.18,.21-.49,.29-.73Z"/>
      <path class="cls-17" d="M96.8,46.66l.18,.02c.05,.08,.12,.15,.2,.21,.12,.05,.23,.1,.34,.16,.06,.06,.11,.18,.2,.2,.21,.05,.38,.2,.51,.36-.09,.33,.24,.39,.39,.55,1.76,1.98,1.91,4.96,.61,7.35-.69,1.27-1.6,2.28-2.58,3.38,.24,.21,.57,.25,.86,.28l1.48,.68c.61,.28,.89,.88,1.66,1.08,1.64,.42,1.53,2.94,2.08,2.8,.34,2.96-1.17,5.71-4.07,7.26,1.72,1.24,2.68,3.08,2.21,5.16-.37,1.65-1.49,3.11-2.94,3.82-.12,0-.27,0-.38,.11-.07,.06-.11,.15-.02,.24-.05,0-.11,0-.16,0-1.55,.39-3.02,1.1-4.72,1.26-.19,.02-.38,0-.52,.11-.05,.04-.12,.12-.04,.22-.11,0-.21,0-.32,.01-.07-.14-.31-.2-.53-.18-1.11,.11-2.09-.02-3.06-.14,.44-.19,.82-.48,1.23-.74,.21-.13,.35-.38,.55-.54,.07-.05,.12-.12,.18-.18l.18-.18,.18-.18c.06-.06,.11-.13,.18-.19,.05-.04,.1-.16,.15-.18,.26-.05,.25-.4,.39-.54,.48-.46,.62-1.14,.83-1.76,.4-1.16,.17-2.36-.29-3.48l.25,.05c.29,.57,.42,1.2,.49,1.96,.89,.32,2.17-1.53,3.53-1.88,.67-.17,1.58-.11,2.13-.64,.12-.11-.11-.43-.25-.5-.2-.09-.57-.1-.72,.09-.87,.12-1.7-.05-2.54-.17-.97-.14-2.01,.08-3.17,.03-.15,.31,.12,.46,.08,.7-.26-.47-.83-.79-1.07-1.29,.13-.01,.25-.16,.38-.2l1.45-.44c1.05-.32,1.76-1.09,2.09-2.04,.06-.18,.16-.34,.19-.53l.07-.38,.02-.18c.09-.93,.22-1.97,0-2.89-.01-.06-.02-.12-.02-.18,0-.12-.13-.26-.15-.36,.1-.23-.15-.38-.19-.55-.26-1.23-1.54-2.66-3.1-2.35,.96-1.19,2.22-2.12,2.32-3.79,.02-.29-.06-.62,0-.9,.28-1.33-.14-2.35-.9-3.2-.56-.63-.51-1.75-1.62-1.99-.55-.12-1.11-1.01-1.81-.98,1.66-.64,2.86,1.09,3.54,1.34,.41,.15,.71-.24,1.01-.32,2.23-.66,.08-2.59,3.87-3.05-.01-.73-.8-.93-1.17-1.35-.73-.84-1.72-.84-2.88-.7-.9,.11-1.81,.12-2.58,.58-.2,.12-.43,.15-.66,.38,.28,.21,.26,.53,.14,.81-.59-.03-1.09,.59-1.32,1.1-.06,.14,.1,.51-.11,.49-.19-.02-.61,.15-.83,0-.35-.24,.12-.9,.45-1.12-.49-.38-.72,.06-.93,.2-.31,.2-.48,.56-.18,.81,.11,.1,.37,.04,.44,.2s.19,.32-.08,.35c-.45-.04-1-.06-1.45,.02-.21-.05-.41,.04-.74-.11,.31-.04,.35-.39,.52-.52,.47-.36,.87-.81,1.14-1.35,.08-.02,.17-.09,.19-.17,.95-.61,1.92-1.19,3.14-1.63,.41-.08,.23-.25-.24-.31,2.01-.72,4.21-.13,6.29,.04Zm1.96,14.37c-.7-.12-1.32,.4-1.97,.5-.85,.14-1.79-.27-2.69,.23-.07,.04-.12,.08-.16,.13-.28,.41,.69,.77,1.04,1.27,.38,.53,.57,1.13,.96,1.79,.57-.3,1.53-.52,1.97-1.05,.32-1,.71-1.77,1.78-2.18,.13-.05,.3-.21,.34-.32,.07-.2-.2-.28-.35-.28-.08-.13-.13-.25-.23-.53-.19,.15-.41,.27-.72,.43Z"/>
      <path class="cls-17" d="M17.14,83.62c.11,.18-.02,.39,0,.67,.94-.27,1.79-.61,2.69-.73,.37-.05,1.06-.05,1.43,.01,1.02,.18,2.08,.21,3.06,.55,.52,.18,1,.64,1.45,.92-.08,.07-.16,.17-.15,.25,.02,.14,.13,.23,.23,.33,.59,.56,.95,2.43,1.47,3.37,.24-.51-.13-1,.22-1.29,.16,.6,.28,1.21,.21,1.83-.3,.15-.04,.64-.16,.85l-1.1,2.04c-.3,.55-1.01,.73-1.43,1.07-.48-.01-.84,.29-1.29,.54-2.1,1.18-5.27,2.7-7.68,1.91-.48-.16-.71-.82-1.22-.93-.99-.21-2.78-1.8-2.71-3.19-.38,.8,.19,1.38,.3,2.08,.04,.23-.26,.51-.09,.92-.68-.25-1.41-.33-2.03-.73-.36-.23-.55-.68-1-.64-.53-.68-1.26-1.41-1.41-2.32,.16,.02,.19-.18,.14-.27-.08-.12-.21-.2-.32-.12-.08-.48,.06-.98,.02-1.46,.41-.59,.36-1.37,.39-2.08,0-.12,.06-.25,.09-.37,.55-.1,.66-.81,.74-1.3,.07-.03,.09-.14,.16-.18,.33,.04,.48-.29,.54-.58,.03-.12,.19-.2,.23-.29,.65-.02,1.55-1.19,2.66-1.45,.65-.16,1.33,.14,1.81-.24,.87,.66,1.59,0,2.75,.8Z"/>
      <path class="cls-15" d="M68.97,84.83c.88,.49,2.15,1.86,4.01,3.03,.98,.61,1.98,1.65,2.93,2.05,.26,.11,.41,.49,.81,.38,.29,.62,1.02,.59,1.5,1.05-.31,.18-.03,.48-.03,.71-.27-.72-.27,3.8,0,3.07,0,.17,.22,.22,.24,.05l.25-1.51c.06-.33,.67-.39,.61-.83-.05-.31-.12-.63-.39-.9,.43-.14,.66-.03,.91-.05,.35,.43,.77,3.62,1.13,4.67,2.54,1.37,4.13,.76,6.56,1.59,.17,.49,.12,.93,.38,1.36l-.08-1.84c.06,.03,.19,.11,.21,.26l.62,3.9c.08,.51,.07,1.07-.35,1.28-.46-.7-5.53-.06-6.06-.53,.37,.44-.28-4.36-.13-4.12l-.7-1.08c-.45,1.11,.72,2.34,.21,3.49,.22,.43,.68,.93,.54,1.51-.19,.15-.2,.35-.25,.69-.32-.47-.68-.19-1.08-.1-.92,.2-1.85,.23-2.8,.35-.34,.04-.4-.37-.55-.57-.19,.25,.11,.58-.22,.81-.79-1.7-.55-3.51-.74-5.33-.12-1.15-.09-2.23,.9-3.11-.62-.1-.99-.52-1.54-.9l-12.45-8.8c-.03-.09-.06-.14-.06-.17-.06-.48-2.4-1.7-2.7-2.16,1.4,.58,1.72,1.54,3.65,.9,.54-.18,.35-.69,.49-1.01,.13-.3,.91-.23,.75-.72,.86,.6,1.81,1.17,2.63,1.94,.3,.28,.5,.48,.8,.65Zm9.01,10.84c0-.09-.07-.16-.16-.16s-.16,.07-.16,.16,.07,.16,.16,.16,.16-.07,.16-.16Zm-.52,.63s-.04-.09-.09-.09-.09,.04-.09,.09,.04,.09,.09,.09,.09-.04,.09-.09Z"/>
      <path class="cls-14" d="M41.36,15.57c.23,0,.64,.01,.87,.06,1.61,.29,3.06,.96,4.45,1.8,.51,.36,.77,.71,1.12,1.11,.19,.21,.33,.44,.47,.69,.23-.26,.42-.34,.64-.36,.05,.04,.24-.05,.18-.13,1.08-.17,2.55-.64,3.37,.63,.45,.69,.19,1.26,0,1.86-.07,.04-.23,.03-.33,.14-1.12,1.23-2.33,2.31-3.72,3.12-.35,0-.59-.45-.94-.52-.82-.17-1.38,.5-1.94,.93-.43,.33-.84,.57-1.2,.98-.4,.46-1.15,.49-1.5,1-1.25,1.83-.76,.36-3.23,2.01-.24,.16-.68,.1-.58,.49-.88,.69-5.24,2.23-6.12,.86-.1-.15-.09-.43-.24-.23-.03,.04-.06,.12-.11,.16-.07-.98,1.44-3.17,2.13-3.69,.05,.33,.44,.39,.63,.56,1.04,.91,2.94-.33,4.17-1.02-.09-.39-.52-.66-.45-.97,.22,.09,.32,.37,.45,.6,.25,.44,.54,0,.75-.04,.68-.15,1.39-.53,1.64-1.3,.23-.71-2.11-1.11-2.6-1.27-.21,.38,.21,.71-.06,.94-.74-1.36-1.85-4.24-1.5-6.02-1.62,1.03,.58,5.55,1.13,6.73-.17-.3-.7-.61-.8-.93-.12-.39-.33-.69-.5-1.04-.21-.43-.05-.89-.62-1.26-.8-.52-.69-2.41-1.74-2.17,1.04-1.67,2.81-2.93,4.7-3.47,.44-.13,.95-.24,1.48-.2Zm.81,3.05c0-.68,.22-1.19,.13-1.71-.06-.33-1.01-.39-1.2-.11-.46,.69-.35,1.77,.1,2.37,.23,.14,.96-.24,.96-.55Z"/>
      <path class="cls-5" d="M92.64,53.97c-1.21,.14-1.78,1.08-2.59,1.88-1.01,.98-2.08,1.71-2.87,2.95-.2,.31-2.11,1.33-3.09,2.49-.34,.41-.77,.72-1.26,.89-1.13,.39-1.45,1.78-2.29,2.35-.88,.59-2.27,.43-2.82,1.59-1.52,3.19-.94,1.95-2.38,2.5-.39,.15-.51,.68-.53,1.07-.08,1.64,1.18,3.03,.39,3.26-.23,.07-.42-.12-.51-.34l-1.21-3.14c-.04-.19,.14-.5,.04-.67,.23,.1,.33-.17,.33-.32,0-.24,.07-.53-.16-.63,.65-2.94,3.02-6.95,3.04-7.41,0-.05,.05-.11,.04-.16,.38,.05,.34-.32,.47-.53,.26-.39,.38-.95,.67-1.31,.6-.68,1.29-1.4,1.56-2.28,.38-.14,.74-.48,1.02-.76-.06,2.17-1.28,2.33-1.57,3.25-.09,.3,.47,.45,.65,.23,.11-.14,.3-.39,.75-.38-.31,.58-.54,1.19-.95,1.74-.24,.32-1.05,.59-.78,1.13,.25,.27,.98-.26,1.12-.62,.5-1.26,4.31-2,5.08-3.19,.61-.93,1.6-1.55,2.1-2.43,1.96-3.48,1.58-1.34,4.11-3.13,1.12,.24,1.07,1.36,1.62,1.99Z"/>
      <path class="cls-1" d="M76.38,40.73c0,.21,.19,.21,.18,0h.54c.31,.27,.72,.12,1.17,.32l-.08,.94c-.02,.27-.24,.9,.13,.98,.78-.55,1.26-.37,1.98-.19,.47,.11,4.64,.83,4.69,1s0,.35,.16,.59c.15-.17,.05-.41,.22-.54l-.13,1.02c-.72-.2-1.54-.61-2.17-.1l-.39-.03c-.55-.58-1.44-.45-2.18-.69-.83-.27-1.34-.29-1.99,.33-.3,.28-.88,.41-.87,.91-.06,0-.14,.04-.19,.02-.47-.14-.34,.08-1.09,.51-.51-.31-.97-.63-.99-1.34-.39,.04-.51,.35-.83,.42-.36,.08-.42-.35-.78-.6-.38,.82-.73,1.52-1.6,1.74,.81,.48,1.06-.28,1.56-.82,.21,.39,.27,.83,.69,.81,.43,1.16-.48,2.44-1.72,2.79-2.47,.71-3.25,2.09-6.43,3.35-.6,.24-1.4,.7-1.99,.16-.3-.28-.23-1.03-.69-1.06,.05-.35,.13-.74,.14-1.1v-.18c.15,.03,.21-.24,.18-.35-.08-.28,.23-.54,.21-.78,.89,.31,1.78,.04,2.75-.2,.44-.11,1.05-.05,1-.61,.22-.04,.44-.26,.7-.2,.1,.03,.18,.23,.29,.16,.15-.09,.23-.21,.15-.33,.1-.03,.24-.02,.33-.07,1.11-.56,1.96-1.56,2.72-2.66,2.67-1.46,1.33-4.08,3.08-3.8,.3,.05,.53-.1,.53-.34l.7-.02Zm-.48,4.17c-.13,.2,.07,.38,.18,.36,.08-.02,.24-.06,.27-.13,.04-.12,.09-.38-.11-.43-.08-.02-.22,.02-.34,.2Z"/>
      <path class="cls-13" d="M63.35,85.22s.03,.08,.06,.17l12.45,8.8c.55,.39,.92,.8,1.54,.9-.99,.88-1.01,1.96-.9,3.11,.18,1.82-.05,3.64,.74,5.33,.33-.23,.03-.55,.22-.81,.15,.2,.21,.62,.55,.57,.95-.12,1.89-.15,2.8-.35,.4-.09,.76-.38,1.08,.1,.05-.33,.06-.54,.25-.69-.01,.06,.07,.14,.08,.2,.53,.47,5.61-.17,6.06,.53-.03,.12-.1,.23-.16,.34-.46,.12-.79,.62-1.35,.68-3.71,.44-2.52,1.34-3.07,1.31-.19-.01-.44-.09-.64,.11,.43,.2,.86-.12,1.09,.2l-2.75,.42c-.2,.03-.45-.03-.67,0-.11,.01-.22,.03-.32,0-1.51-.4-1.4-.54-2.7-1.53-1.8-1.38-1.33-2.03-1.52-3.48-.05-.05,.05-.2,0-.25,.04-.89,.08-1.81,.01-2.7-.05-.65,.2-1.62-.15-2.26-1.17-2.09-4.17-3.8-6.18-5.31-2.13-1.6-4.12-3.22-6.27-4.65-.11-.07-.28-.05-.39-.1,.01-.04,0-.09,0-.13,0-.16-.1-.24-.24-.16-.03,.02-.1-.01-.14-.02,.21-.1-2.63-2.13-2.72-2.03-.11-.12-.17-.28-.34-.33-.05-.08-.12-.15-.19-.2l-.34-.17c-.05-.18-.21-.31-.39-.37-.05-.02-.12,.02-.16,0-.13-.34-.44-.53-.74-.72-2.15-1.41-4.14-3.07-6.14-4.69,.29-.03,.5,.14,.77,.35l8.58,6.4c.75,.56,1.42,1.07,2.2,1.42Zm14.3,18.67s-.04-.09-.09-.09-.09,.04-.09,.09,.04,.09,.09,.09,.09-.04,.09-.09Z"/>
      <path class="cls-15" d="M87.21,91.36c.15,2.08,1.49,3.42,.47,5.22-.92-.58-1.04,.38-3.73-.16-.7-.14-1.68,.04-2.22-.51-.87-.88-.91-2.21-1.07-3.32-.03-.2,.09-.58,.22-.85,.5,.57,.44,3.4,1.05,3.58,.12-.87-.2-1.5-.32-2.35,1.95-.86,1.55-2.03,3.8-1.82,.64,.06,1.3-.14,1.79,.21Zm-1.98,4.31c0,.09,.02,.19,.05,.25,.09,.14,.24,.15,.5,.14,.51-.32,1.06-1.13,.49-1.63-.36-.39-1.03-.77-1.53-.27-.16,.16-.25,1.57,.47,1.52Z"/>
      <path class="cls-1" d="M30.32,98.02c-.07-.68,1.28,.04,2.28-.18,.02,.68,.16,1.34,.25,2.01,.03,.22,.04,.55-.19,.75-.23-.47-.37-.93-.88-1.19-.4,.65,.1,1.12,.46,1.57,.5,.63,.65,1.58,1.27,2.14,.54,.49,.82,.98,1.19,1.6s2.2,1.71,1.83,2.17c-.28,.34-1.8-.3-1.89,.18-.42,0-.86-.04-1.27,.04,.6-.37-.44-1.65-.79-2.47-.24-.57-.27-1.18-.84-1.56l-.67,1.13c-.07,.58,1.16,2.49,.69,2.67-1.51-2.78-2.14-6.05-2.3-9.21-.01-.23,.2-.62,.22-.91,.26,.59,.02,1.22,.43,1.66,.21,.04,.24-.29,.23-.39Zm-.36,.92c.05,.53,0,1.09,.4,1.66,.14-.59,.08-1.21-.2-1.67,.05-.24-.26-.22-.19,.01Z"/>
      <path class="cls-3" d="M90.8,79.41c-.06,.02-.1,.14-.15,.18-.07,.05-.13,.12-.18,.19l-.18,.18c-.07,.05-.13,.11-.18,.18-.06,.06-.11,.13-.18,.18-.17,0-.36,.02-.46,.17-.07,.11-.09,.24-.09,.37-.41,.25-.79,.54-1.23,.74-1.53-.2-3.1,.3-4.73,.37-.47,.02-1.03-.28-1.38,.27,1.5,.12,2.94,.13,4.38-.22,.35-.09,.61-.02,.81,.09-1.37,.85-5.31,.45-7.32,.46,.63,1.55,1.41,2.8,1.76,4.25-.31-.26-.53-.69-.98-.54-.28-1.12-.45-3.35-1.39-4.17-.24-.42-.27-1.07-.56-1.46,.1,.03,.24-.03,.34,.02,.57,.24,1.31,.04,1.85-.18,.32,.1,.69,0,1.01,.16,.22,.11,.68,.07,.79-.15l.5-.02c.13,.15,.32,.22,.55,.15,.11-.04,.26-.11,.32-.26l.89-.04c.16,0,.44,.04,.63-.02,.11-.03,.29-.14,.18-.32l.49-.03c.21,.2,.47,.23,.66,.04,.17-.16,.33-.32,.29-.55,.15-.02,.32-.05,.48-.05,.36,.01,.67-.46,1.1-.33,.66,.19,1.23,.36,1.86-.17l.11,.53Z"/>
      <path class="cls-12" d="M52.46,21.22c-.45,1.36-1.44,2.46-2.65,3.44-3.67,3-7.94,5.17-12.48,6.61-.96,.31-2.41,.34-3.22,.28-.08,0-.26,.03-.3,.13-.52-.33-1.23-1.02-1.27-1.54,.05-.05,.08-.12,.11-.16,.14-.19,.14,.08,.24,.23,.88,1.37,5.23-.17,6.12-.86,3.35-1.08,6.53-2.81,9.4-4.87,1.39-.8,2.6-1.89,3.72-3.12,.1-.11,.26-.1,.33-.14Z"/>
      <path class="cls-16" d="M79.43,88.79c.33,.08,.77-.07,1.07,.04,.6,.22,1.26-.15,1.84-.03,.82,.18,1.65,.22,2.58,.31,1.22,.12,2.2,1.07,2.29,2.25-.5-.35-1.15-.15-1.79-.21-2.25-.21-1.85,.96-3.8,1.82,.12,.85,.44,1.49,.32,2.35-.6-.18-.54-3.01-1.05-3.58-.13,.27-.25,.65-.22,.85-.69-1.56-.13-2.53-2.08-3.4,.13-.26,.54-.47,.84-.4Z"/>
      <path class="cls-17" d="M26.9,112.81c2.23-1.68,2.8-.44,3.1-1.1,.24-.55,.02-1.59,.51-1.95,.13-.3,.05,2.81-.53,2.48,.66,.04,.3,.72,.45,.92,1.21,1.62,2.41,3.18,3.44,4.94,.38,.65,1.02,1.11,.97,2.11-2.48-.43-2.36-2.13-3.88-3.35-.53-.42-2.7-2.66-2.74-3.59,.59-.19,1.1-.35,1.57-.75-1.1-.22-1.98,.05-2.88,.29Z"/>
      <path class="cls-13" d="M80.67,92.59c.16,1.11,.2,2.44,1.07,3.32,.54,.55,1.52,.37,2.22,.51,2.68,.54,2.81-.42,3.73,.16,0,.24,.02,.47,.07,.7-.25,0-.16,.24,.04,.2,0,.05,0,.12,0,.17l.08,1.84c-.26-.42-.21-.87-.38-1.36-2.42-.83-4.02-.22-6.56-1.59-.36-1.05-.78-4.23-1.13-4.67-.57-.7-1.14-.1-1.6-.54s-1.21-.43-1.5-1.05c.43-.64,1.16-.88,1.88-1.1,1.95,.87,1.39,1.84,2.08,3.4Z"/>
      <path class="cls-17" d="M96.46,47.61c.36,.42,1.15,.63,1.17,1.35-3.79,.46-1.64,2.4-3.87,3.05-.29,.09-.6,.47-1.01,.32-.67-.25-1.87-1.98-3.54-1.34-.4,.16-.92-.28-1.26-.31,.27-.03,.15-.18,.08-.35s-.33-.1-.44-.2c-.3-.25-.13-.61,.18-.81,.21-.14,.44-.57,.93-.2-.32,.22-.79,.88-.45,1.12,.22,.15,.64-.02,.83,0,.21,.02,.04-.35,.11-.49,1.51-.31,.85,.68,1.58,.58,.22-.03,.5-.06,.61-.46,.76-.25,1.59-.25,2.3,.23,.02-.66,.56-.6,.86-.84,.69-.55,1.13-1.42,1.94-1.67Z"/>
      <path class="cls-1" d="M30.32,98.02c0,.1-.02,.43-.23,.39-.41-.44-.17-1.07-.43-1.66-.01,.29-.23,.68-.22,.91-.36-2.92,.19-4.84,.51-7.59,.55-1.08,2.39-2.3,3.04-3.62l.38-.17c.06,.79-.76,1.36-.93,2.1l-1.28,5.59c-.13,.57-.32,1.11-.97,1.25l-.07,2.46c0,.17,.02,.37,.19,.33Z"/>
      <path class="cls-17" d="M15.82,79.24c.37,.46,.91,.64,1.5,1.13l-.93,.82c-.67,.59-1.56,.89-2,1.62-.48,.38-1.15,.08-1.81,.24-1.11,.27-2.01,1.43-2.66,1.45,.14-.29,.29-.57,.43-.83,1.29-2.33,2.67-3.53,5.46-4.43Z"/>
      <path class="cls-3" d="M38.04,23.71c.1,.32,.62,.63,.8,.93,.07,.12,.22,.19,.18,.36-.06,.3,.36,.57,.45,.97-1.23,.7-3.12,1.93-4.17,1.02-.13-.55,.13-1.17,.13-1.75,0-.1-.29-.3-.25-.48,.02-.1,.19-.07,.36-.18,.12-.45-.11-.81-.43-1.03-.28-.19-.63-.18-.96-.14-.02-.55-.02-1.13,.16-1.64,1.82,.38,1.52,2.15,3.74,1.94Z"/>
      <path class="cls-5" d="M35.74,51.09c-.04,.96-.89,.77-1.09,1.9-.46,.28-1.82,.88-1.65,1.57,.25,.99,3.78-1.21,2.76-1.74,.25-.07,.48-.22,.74-.11,1.93,.8-1.88,1.99-2.26,2.68-.22-.16-2.1,.88-2.16,.06,.08-.43,.69-1.03,.2-1.36-.35-.24-.95,.09-1.29,.26-.15-.04-.23-.17-.34-.23,.09-.51,.42-.95,.55-1.45,.49-.02,.91-.4,1.24-.75,.7-.24,1.38-.54,2.03-.89l1.27,.07Z"/>
      <path class="cls-5" d="M77.88,48.71h.48c.85,2.49,3.43,1.42,3.71,2.86,.12-.13,.18-.28,.33-.36-.1,.7-.48,1.32-1.15,1.58s-1.39,.25-1.97-.16c.37-.36,.81,.02,1.1-.56,.14-.27,.17-.52-.12-.73-.67-.49-1.27,.14-1.87,.14-.68-.42-2.31-1.04-2.19-1.74,.1-.57,.18-.83,.58-1.06-.09,.4,.2,.57,.58,.52,.26-.03,.45-.22,.51-.51Z"/>
      <path class="cls-4" d="M38.6,64.07c.6,.34,1.19,.66,1.74,1.07l.02,.15v1.22c0,.29-.64,.21-.82,.44-1.28-.51-2.7-.44-4.14-.15-.42,.09-.79,.19-1.09-.07,1.34-.99,2.68-2.13,4.29-2.66Z"/>
      <path class="cls-5" d="M81.07,40.74c.24,.01,.62,.08,.88,.12,1.21,.19,2.5,.77,3.06,1.85-.11,.19-.32,.34-.61,.3l-3.43-.55c-.92-.41-1.87-.5-2.79-.47l.08-.94c-.45-.2-.86-.05-1.17-.32,2.22-.27,2.05-.09,3.98,.01Z"/>
      <path class="cls-17" d="M25.07,93.51c-1.38,1.12-3.02,1.99-4.75,2.57-2.62,.87-5.01,.32-7.41-.73-1.3-.57-2.7-.75-3.57-1.87,.45-.04,.64,.41,1,.64,.62,.4,1.34,.48,2.03,.73-.17-.41,.12-.69,.09-.92-.11-.7-.68-1.29-.3-2.08-.07,1.39,1.72,2.98,2.71,3.19,.51,.11,.74,.77,1.22,.93,2.42,.79,5.58-.73,7.68-1.91,.45-.25,.81-.55,1.29-.54Z"/>
      <path class="cls-5" d="M33.16,46.16c.46-.06,1.1,.52,1.04,.98-.1,.83-.86,1.1-1.44,1.39-1.08,.54-1.54,1.08-2.78,1.16-.23,.02-.71,.25-.8,.45-.31-.18-.18-.49-.19-.76,.01-1.22,2.4-2.74,3.47-3.1,.2-.07,.5-.09,.71-.12Z"/>
      <path class="cls-1" d="M42.04,62.06c-.19,.03-.31,.18-.35,.36l-.9-.34c-1.51-1.83-3.29-3.39-4.57-5.49l-1.06,.61c-.2,.06-.19-.19-.02-.23,1.26-.25,1.31-1.56,2.87-.73,.13,.18-.14,.59-.05,.77,.08,.16,.51,.24,.58,.41,.31,.83,.55,1.61,1.34,2.12,.14,.09,2.12,2.29,2.16,2.52Z"/>
      <path class="cls-17" d="M33.39,46.13l-.24,.03c-.21,.03-.51,.05-.71,.12-1-4.95-.35-9.89,1.37-14.61,.03-.09,.21-.13,.3-.13,.04,.2,.23,.28,.57,.48-1.6,1.81-2.32,6.94-2.2,9.32,.06,1.31-.19,3.51,.91,4.79Z"/>
      <path class="cls-1" d="M82.68,44.7l.39,.03c.82,.62,.82-.24,1.43,1.08-.3,.32-.59,.66-1.02,.9-.08,.04-.2,.01-.29,.05-1.3-.42-2.23-.96-3.57-.8-.4,.05-.83-.06-1.23,.02-.21,.04-.47-.05-.68-.14s-.27-.34-.25-.57c.06,.02,.13-.03,.19-.02,.4,0,.87,.11,1.31-.11,2.13-1.06,2.18,.24,3.73-.44Z"/>
      <path class="cls-1" d="M76.42,51.54l.12,1.29c.04,.49-.53,.94-.25,1.49,.63-.24,.84-.84,1.34-1.1-.74,1.81-3.59,4.62-4.47,6.28l-.18,.35c-.24,.03-.32,.26-.63,.49-.26-.55,.06-.97,.35-1.41l1.45-2.23c3.21-4.95,1.41-3.99,1.57-5.36,.01-.1,.26-.11,.39-.11,.15,0,.25,.16,.33,.31Z"/>
      <path class="cls-5" d="M79.62,45.96c-.07,.46,.1,.87,.44,1.14s3.05,.76,3.54,.33c-.17-.29-.36-.45-.41-.68,.08-.04,.21,0,.29-.05,.34,.81,1.13,1.5,.37,2.5-.34,.05-.02-.63-.18-.65-1.1-.13-2.2,.04-3.14-.21-.61-.16-1.21-.34-1.84-.38-.37-.6-.34-1.3-.29-1.99,.41-.08,.83,.03,1.23-.02Z"/>
      <path class="cls-1" d="M34.98,47.93c-.99,.12-1.67,.98-2.57,1.42-1.14,.56-2.4,.9-3.54,1.16-.07-.39-.18-.8,.1-1.14,.02,.27-.11,.58,.19,.76,.09-.2,.55-.5,.79-.51,1.24-.08,1.65-.73,2.72-1.27,.58-.29,1.41-.39,1.52-1.21,.06-.46-.58-1.04-1.04-.98l.39-.11,2.56-.6c.18,.5-.83,.16-1.15,.57-.35,.45,.15,1.24,.02,1.91Z"/>
      <path class="cls-1" d="M33.36,107.1c-.25,.06-.44,.38-.64,.52s-.54,.09-.75,.17c0-.32-.16-.62-.23-.92,.47-.19-.75-2.1-.69-2.67l.67-1.13c.57,.38,.6,.99,.84,1.56,.35,.83,1.4,2.1,.79,2.47Z"/>
      <path class="cls-4" d="M34.98,47.93c-.12,2.6-3.77,2.68-3.43,2.58l-1.08,.32c-.48,.14-.92,.12-1.25,.4-.31-.14-.3-.44-.35-.72,1.14-.26,2.4-.6,3.54-1.16,.9-.44,1.58-1.3,2.57-1.42Z"/>
      <path class="cls-13" d="M41.69,62.43c.09,.62,1.37,.87,1.08,1.02-.7-.02-1.2,1.63-3.11,.3-.51,.96,1.14,1.06,.69,1.39-.55-.41-1.15-.73-1.74-1.07,.35-.99,1.25-1.56,2.18-1.99l.9,.34Z"/>
      <path class="cls-11" d="M32.99,86.45c-.65,1.33-2.49,2.55-3.04,3.62-.66,.2-2.91,2.57-3.46,2.37l1.1-2.04c1-.18,1.9-.73,2.5-1.64,.24-.36,1.7-.84,2.35-2.15,.18-.05,.38-.09,.55-.17Z"/>
      <path class="cls-6" d="M46.53,10.46c-.06,.16-.2,.26-.33,.36,.28,.16,.43,.25,.48,.4,.19,.54-.46,.99-.51,1.67-1.16,1.05-.39,.36-2.51,.54,.2-.8,.76-1.42,1.51-1.88,.13-.75,.74-1.08,1.36-1.08Z"/>
      <path class="cls-5" d="M79.09,55.86c.09,.14,.23,.24,.39,.29-.27,.88-.96,1.6-1.56,2.28,0-.06,.04-.13,.04-.19,0-.14-.18-.12-.32-.15-1.45-.37-3.17,1.59-4.68,1.76l.18-.35c2.11-.99,3.97-2.4,5.94-3.63Z"/>
      <path class="cls-11" d="M80.6,106.17c.25-.11,.55,.03,.8,0-.02,.22-.05,.45,0,.66-.85,.16-1.52,.76-2.32,1.06-.4-.09-.27-.7-.55-.96-.83-.8-1.73-1.5-1.91-2.59,.74,.5,1.42,1.07,2.35,1.37,.51,.17,.8,1.52,1.42,1.23,.3-.14,.28-.54,.21-.77Z"/>
      <path class="cls-4" d="M34.25,55.38c.21,.27-1.76,1.56-1.97,1.63-.36-.3-.36-.74-.68-1.13-.44-.54-1.06-1.02-.93-1.77,.11,.07,.19,.19,.34,.23,.34-.16,.94-.49,1.29-.26,.49,.33-.12,.93-.2,1.36,.06,.82,1.93-.22,2.16-.06Z"/>
      <path class="cls-3" d="M37.54,22.67c-.99,.67-1.57-1.78-2.58-1.9l-.62,.79c.02-.83,.4-1.62,.84-2.33,1.05-.24,.94,1.65,1.74,2.17,.57,.37,.41,.83,.62,1.26Z"/>
      <path class="cls-1" d="M85.02,42.71c.21,.4,.42,.59,.35,1.1-.17,.13-.07,.37-.22,.54-.17-.23-.12-.42-.16-.59s-4.22-.88-4.69-1c-.72-.17-1.2-.36-1.98,.19-.37-.08-.15-.7-.13-.98,.92-.04,1.87,.06,2.79,.47l3.43,.55c.29,.05,.5-.1,.61-.3Z"/>
      <path class="cls-17" d="M96.8,46.65c-2.08-.17-3.67-.65-5.68,.07,.46,.06,.01,.55-.39,.63-1.21,.44-2.16,.58-3.11,1.19l.2-.7c.3,.08,.6,.05,.81-.18,.13-.14,.58-.37,.25-.6,2.13-1.42,4.87-1.81,7.43-.95,.28,.09,.44,.3,.51,.53Z"/>
      <path class="cls-3" d="M88.16,81.59c.97,.13,1.95,.26,3.06,.14,.22-.02,.46,.03,.53,.18-.2,.45-5.68,.6-6,.62-.2-.11,1.03-.61,.67-.52-1.44,.35-2.88,.34-4.38,.22,.36-.55,.92-.25,1.38-.27,1.63-.07,3.2-.57,4.73-.37Z"/>
      <path class="cls-3" d="M37.54,22.67c.17,.35,.38,.65,.5,1.04-2.22,.22-1.92-1.56-3.74-1.94,.02-.06,.03-.15,.04-.21l.62-.79c1.01,.12,1.59,2.57,2.58,1.9Z"/>
      <path class="cls-12" d="M35.3,27c-.19-.17-.58-.23-.63-.56-.17-1.01-.5-1.99-.53-3.02,.32-.04,.68-.05,.96,.14,.32,.22,.55,.58,.43,1.03-.16,.12-.34,.09-.36,.18-.03,.18,.25,.38,.25,.48,0,.57-.26,1.2-.13,1.75Z"/>
      <path class="cls-1" d="M83.85,49.21c-.29,.39-.38,.92-1.15,.96-.11,0-.27,.18-.24,.28-.1-.06-.19-.12-.3-.16,.11-.71-1.24-1.51-1.65-1.94,.95,.25,2.04,.08,3.14,.21,.17,.02-.15,.69,.18,.65Z"/>
      <path class="cls-9" d="M81.67,86.81c.34,.61,.59,1.29,.67,1.98-.58-.13-1.24,.24-1.84,.03l.17-1.25c.06-.46-.27-.94,0-1.31,.45-.15,.67,.28,.98,.54Z"/>
      <path class="cls-13" d="M88.12,103.43c-.55,1.11-2.87,2.14-3.96,2.31-.24-.32-.66,0-1.09-.2,.2-.2,.45-.12,.64-.11,.55,.03-.65-.87,3.07-1.31,.55-.07,.89-.56,1.35-.68Z"/>
      <path class="cls-1" d="M82.16,50.29c.1,.04,.2,.1,.3,.16,.17,.28-.03,.53-.06,.77-.16,.07-.21,.23-.33,.36-.28-1.44-2.86-.36-3.71-2.86,1.24,0,2.9,2.11,3.8,1.58Z"/>
      <path class="cls-4" d="M78.47,52.18c-.21,.23-.35,.51-.62,.66-.02-.13-.11-.25,0,0-.09,.08-.1,.31-.23,.37-.5,.26-.71,.87-1.34,1.1-.27-.55,.3-1,.25-1.49l-.12-1.29c.66,.13,1.56,.13,2.05,.64Z"/>
      <path class="cls-17" d="M81.95,40.86c-.26-.04-.63-.11-.88-.12,1.08-.55-2.97-.18-2.91-.67,1.04-.37,2.27,.81,2.7-.61,.1-.34,.43-.59,.48-.93,.05-.31-.19-.7,.08-.9,.14,.92,.25,2.69,.52,3.24Z"/>
      <path class="cls-6" d="M50.88,9.05c0,.17,.1,.43,0,.59-.23,.38-.56,.76-.88,1.07-.28,.26-.52,.55-.73,.94l-.18,.33c-.37,.06-.66,.36-.74,.72-.3,.17-.7,.54-.77,.88-.13,.02-.31-.02-.42,.05,.17-.47,.42-.92,.65-1.36,.13-.25,.58-.5,.68-.79,.66-.54,1.39-1.11,1.82-1.85,.03-.33,.35-.41,.56-.57Z"/>
      <path class="cls-6" d="M48.18,11.27c.09,.05,.18,.21,.31,.21-.09,.29-.54,.55-.68,.79,0-.32-.12-.44-.29-.65-.12,.39-.03,.68-.33,.84-.45,0-.76,.19-1.02,.43,.05-.68,.7-1.13,.51-1.67-.05-.15-.21-.24-.48-.4,.12-.1,.27-.2,.33-.36,1.39,0,.52,.53,1.64,.81Z"/>
      <path class="cls-17" d="M88.86,47.07c.33,.23-.12,.46-.25,.6-.21,.23-.51,.26-.81,.18l-.2,.7c-.02,.08-.11,.16-.19,.17-.63,.12-1.1,.67-1.4,1.22-.11,.07-.33,.06-.49,.21-.08,.08,.04,.32-.03,.44-.38,.16-.85,.25-.99,.65-.11,.04-.21,.17-.36,.13,.47-1.15,1.46-1.99,2.36-2.85,.75-.72,1.61-.96,2.35-1.45Z"/>
      <path class="cls-17" d="M102.72,63.72c-.55,.14-.44-2.38-2.08-2.8-.76-.2-1.04-.8-1.66-1.08l-1.48-.68c2.52,.24,4.94,2.21,5.21,4.56Z"/>
      <path class="cls-6" d="M61.57,10.22c-.12-.03-.35,.16-.52-.07-.82-1.1-1.99-1.59-3.23-1.92,1.55-.62,2.86,.86,3.76,1.99Z"/>
      <path class="cls-17" d="M57.02,8.55c-.27,.5-.74,1.02-1.28,1.3-.6-.66-.72-1.39-1.06-2.02,.54,.07,.84,.6,1.31,.93,.33,.23,.75-.15,1.03-.2Z"/>
      <path class="cls-17" d="M97.35,80.31c-.65,.86-4.09,1.62-5.28,1.59-.07-.1,0-.18,.04-.22,.14-.11,.34-.09,.52-.11,1.7-.16,3.17-.87,4.72-1.26Z"/>
      <path class="cls-17" d="M42.23,15.62c-.24-.04-.64-.06-.87-.06,.14-.21,.13-.47,.11-.72,.15-.46,1.14-.73,2.04-1.28-.27,.54-.63,1.05-1.12,1.51-.14,.18-.17,.37-.16,.54Z"/>
      <path class="cls-6" d="M53.97,7.71l-.99,.6c-.75,.45-1.45,.84-2.1,1.33,.1-.16-.01-.42,0-.59,.92-.7,1.92-1.36,3.09-1.34Z"/>
      <path class="cls-5" d="M32.45,51.91c-.32,.34-.74,.73-1.24,.75-.3-.04-.59-.34-.87-.43-.27-.74,2.14-.42,2.11-.31Z"/>
      <path class="cls-1" d="M85.23,44.83c-.07,.51-.43,.66-.74,.98-.61-1.32-.61-.46-1.43-1.08,.63-.51,1.45-.1,2.17,.1Z"/>
      <path class="cls-5" d="M81.26,54.29c-.5,.17-.48,.72-.75,1.09-.28,.28-.65,.62-1.02,.76-.16-.05-.3-.15-.39-.29,.93-.63,1.62-1.83,2.69-2.33-.14,.18-.28,.68-.53,.76Z"/>
      <path class="cls-17" d="M84.38,107.36c-.95-.13-1.9-.16-2.93,.07-.04-.21,.23-.17,.24-.28,.01-.13-.25-.21-.29-.33,.12-.02,.27,.04,.39,.03l.18-.12c.18-.02,2.8,.22,2.4,.63Z"/>
      <path class="cls-6" d="M63.02,10.69c.38,.47,.84,.99,1.44,1.12,.03,.07,.1,.18,.16,.22,.05,.21-.07,.35-.18,.5-.04-.34-2-1.71-1.93-2.07,.22,.06,.33,.14,.51,.22Z"/>
      <path class="cls-17" d="M41.47,14.85c.03,.25,.03,.51-.11,.72-.41-.01-1.04,.07-1.48,.2,.47-.4,.97-.83,1.59-.92Z"/>
      <path class="cls-17" d="M7.77,89.3c-.06-.71-.08-1.5,.39-2.08-.04,.7,.01,1.48-.39,2.08Z"/>
      <path class="cls-7" d="M86.01,49.94c.09,.03,.18,.08,.26,.13-.17,.13-.2,.48-.52,.52,.33,.15,.53,.06,.74,.11-.68,.12-1.34,.33-1.99,.54,.14-.39,.61-.49,.99-.65,.07-.12-.05-.36,.03-.44,.16-.15,.37-.15,.49-.21Z"/>
      <path class="cls-5" d="M82.16,53.38c0,.53-.36,.91-.9,.91,.25-.09,.38-.58,.53-.76l.17-.16h.2Z"/>
      <path class="cls-17" d="M8.26,86.85c.1-.5,.27-1.06,.74-1.3-.08,.49-.19,1.2-.74,1.3Z"/>
      <path class="cls-6" d="M65.14,12.41l.04,.31c-.19,.04-.26-.35-.67-.13,.3,.31,.51,.59,.29,.87-.29-.2-.6-.58-.37-.92,.11-.15,.23-.29,.18-.5,.15,.11,.33,.35,.53,.38Z"/>
      <path class="cls-6" d="M64.46,11.81c-.6-.13-1.06-.65-1.44-1.12,.55,.24,1.19,.55,1.44,1.12Z"/>
      <path class="cls-5" d="M82.16,53.38h-.2c.48-.47,.88-.99,1.43-1.45-.43,1.28-1.24,.96-1.23,1.45Z"/>
      <path class="cls-17" d="M98.62,48.14c-.14-.16-.48-.22-.39-.55,.08,.06,.3,0,.35,.13,.06,.15,.06,.29,.04,.42Z"/>
      <path class="cls-17" d="M7.94,91.15c-.12-.09-.16-.24-.18-.39,.11-.08,.24,0,.32,.12,.06,.09,.02,.29-.14,.27Z"/>
      <path class="cls-17" d="M97.91,79.95c.12,.13-.03,.27-.14,.33-.08,.04-.18,.02-.26,.02-.09-.09-.04-.17,.02-.24,.11-.11,.26-.12,.38-.11Z"/>
      <path class="cls-5" d="M84.15,51.37c-.08,.17-.25,.53-.52,.32-.01-.19,.35-.31,.52-.32Z"/>
      <path class="cls-17" d="M9.15,85.37c.02-.31,.27-.49,.54-.58-.06,.29-.21,.61-.54,.58Z"/>
      <path class="cls-6" d="M48.49,11.48c-.13,0-.22-.16-.31-.21,.62,.24,1.55-1.28,2.14-1.64-.43,.74-1.16,1.32-1.82,1.85Z"/>
      <path class="cls-17" d="M85.23,107.8c-.25-.02-.49-.14-.55-.4,.25,.03,.36,.28,.55,.4Z"/>
      <path class="cls-13" d="M87.79,97.48c-.21,.05-.29-.2-.04-.2,.01,.06,.04,.13,.04,.2Z"/>
      <path class="cls-17" d="M97.18,46.87c-.08-.06-.15-.13-.2-.21,.09,0,.26,.08,.2,.21Z"/>
      <path class="cls-17" d="M97.72,47.23c-.09-.02-.14-.14-.2-.2,.08,.05,.15,.12,.2,.2Z"/>
      <path class="cls-17" d="M57.21,8.53c-.03-.16,.13-.11,.2-.14-.06,.06-.12,.12-.2,.14Z"/>
      <path class="cls-5" d="M74.95,96.2c-.89-.09-.61,2.73,.35,3.44-.12,.88-.2,1.68,.15,2.38,.12,.24,0,.65,.37,.72,0,.16-.07,.36-.02,.52-.18,0-.38,.02-.45,.14-.11,.18,.17,.54,.09,.67-1.11,1.69-.58,2.27-1.96,2.75,.35,1,1.65,.43,1.48,.75-.74,.28-1.87,.62-2.34,1.36-1.3-.05-1.99-.62-3.08-.58-.28,0-.35,.63-.56,.7-1.08,.4-1.43,1.1-1.93,2.09-.11,.21-1.89,2.35-1.89,2.38,.16,1.31,2.67,1.15,4.62-.78,.39-.39,1.36-.51,1.79-.31,.23,.11,.07,.72,.4,.59l.05,.34c-1.46-.03-2.88,.67-3.76,1.84-1.01,.16-1.99-.2-3.04-.28-.47,.05-.87,.92-.92,1.31-.35,.28-.98,.54-1.25,.9l-2.06,.52c-.17,.04-.28,.18-.34,.24-1.75-.04-2.87,.27-5.68,.13-.72-.04-1.5,.29-2.08-.16,.07-.35-.2-.97,.19-1.21,.26-.16,.71,.02,.82-.21,.1-.2,.22-.62,.04-.84-.39-.49-1.06-.5-1.58-.78-.9-.49,.99-1.46,1.64-1.6l1.86-.4c.8-.17,4.92-.13,5.21-1.43,1.81-.49,1.95-1.52,3.39-1.26,2.61,.47,4.17-2.78,4.84-3.41s2.26-.72,2.34-1.97c.01-.2-.38-.57-.26-.82,.08-.15,.34-.4,.46-.61-.77-3.43-2.3-2.1-2.77-6.13-.03-.29-.9-.71-.55-1.06s.76-.78,1.16-1.04c.94-.61,2.07,1.63,3.09,1.47,.4-.06,.25-.73,.15-1.06-.01-.04-1.85-1.18-2.11-1.44-.52-.93-.94-1.93-1.27-2.88,.24-.46,3.97,2.98,4.28,3.28,.59,.58,.89,1.1,1.16,1.75Z"/>
      <path class="cls-16" d="M47.48,67.45c.52,.43,1.29,.81,1.75,1.3,.4,.42,.66,.92,1.2,1.39l1.63,1.45,9.57,7.57c.36,.29,.58,.59,.99,.82,1.1,.62,1.94,1.58,2.92,2.26,.16,.48-.62,.42-.75,.72-.14,.31,.05,.83-.49,1.01-1.93,.64-2.25-.32-3.65-.9,.31,.46,2.64,1.68,2.7,2.16-.78-.35-1.45-.86-2.2-1.42l-8.58-6.4c-.27-.2-.48-.38-.77-.35,.04,.03-2.85-2.53-2.89-2.58-1.1-1.12-2.21-2.24-3.44-3.2l-.18-.18c-.02-.51-.5-.82-.9-1.1-.04-.21-.99-.86-1.81-2.2,.31-.25,4.3-.34,3.89-1.08,.21,.44,.71,.48,1.01,.73Z"/>
      <path class="cls-2" d="M33.15,72.32c-.71,1.85-.24,3.98-2.79,4.14-1,.06-2.34-.31-2.5-.83-.25-.79,1.1-1.37,1.46-1.91,.45-.68,.81-1.33,1.35-1.92,1.38-1.52,2.82-3.01,4.61-4.04,.55-.31,.88-.17,1.4-.01,.71,.21,1.43,.14,2.15,.47,.2,.09,.53,.73,.25,.79-1.02,.22-1.65,.8-2.48,1.36-.68,.47-1.52,.66-1.85,1.59-.55,.12-1.22,0-1.6,.37Z"/>
      <path class="cls-1" d="M32.85,99.85c.25,0,.44,.17,.65,.39l1.34,1.37c.32,.33,.49,.78,.9,.88,.65,.51,1.03,1.4,1.74,1.88,.54,.36,1.01,.61,1.46,1.09,.61,.66,1.61,.63,2.36,.89,.53,.68,1.57,.69,2.04,1.59-.54,.11-1.04-.38-1.3,.04-.39-.05-.92,.09-1.27-.02-1.18-.35-1.74,.8-2.54,1.3-.79-1.32-2.04-2.2-3.59-2.18,.09-.48,1.61,.16,1.89-.18,.37-.46-1.45-1.54-1.83-2.17s-.65-1.11-1.19-1.6c-.62-.56-.77-1.51-1.27-2.14-.35-.45-.85-.92-.46-1.57,.51,.27,.64,.72,.88,1.19,.23-.2,.21-.52,.19-.75Z"/>
      <path class="cls-2" d="M24.32,84.12c-.98-.34-2.04-.38-3.06-.55-.21-1.08,1.7-.12,1.75-.9,.02-.31-.19-.65,0-.85,.11-.12,.51-.28,.58-.47,.25-.74,.73-1.13,1.39-1.53,.46-.28,.7-.9,1.42-.96,.92-.07,1.19-1.05,2.35-.9,.37,.05,.58,.37,.85,.72,1.23,1.57-1.4,3.05-2.6,3.39-.74,.21-1.1,.98-1.7,1.38-.36,.24-.98,.14-.97,.68Z"/>
      <path class="cls-11" d="M52.86,117.87c.58,.45,1.36,.12,2.08,.16,2.81,.14,3.93-.17,5.68-.13,.76,.02,1.11,.55,1.75,.73l3.33,.91c.52,.14,.96,.47,1.46,.33,.06,.25,.41,.46,.35,.77-5.28-1.48-6.17-1.58-11.76-1.43-1.95,.05-3.83,.48-5.74,.71-.77,.09-1.43,.62-2.16,.52,.19-.39,.13-.87,.19-1.29,.11,.1,.14,.24,.26,.4-.04-1.02,4.21-1.13,4.06-1.63l.49-.05Z"/>
      <path class="cls-15" d="M42.77,63.45c.1,0,.2-.01,.3,.02,1.17,1.2,2.47,2.29,3.86,3.22l.56,.76c-.3-.25-.79-.28-1.01-.73,.41,.74-3.58,.83-3.89,1.08-.23-.38-.82-.65-1.02-1.03-.31-.58-.78-.97-1.2-1.48l-.02-.15c.45-.33-1.2-.43-.69-1.39,1.91,1.33,2.41-.32,3.11-.3Z"/>
      <path class="cls-1" d="M49.2,115.51l-1.62-.24c-.85-.12-1.61-.8-2.52-.69-.16,.2-.13,.6-.13,.8-.09-.02-.2,.04-.29,.03-.08-.65,.4-1.28,.44-1.88,.58-.47,.6,.69,2.76,.08,.72-1.14,.38-2.28-.6-3.09-.45-.37-.77-1.09-1.54-.85-.29,.09-.6,.32-.9,.23-.02-.04-.02-.1-.02-.14,.02-.2-.17-.23-.27-.33-.71-.71-1.47-1.34-2.47-1.46,.25-.41,.76,.07,1.3-.04-.47-.89-1.5-.9-2.04-1.59,.27,.09,.71,.02,.99,.27,1.96,1.72,3.83,.76,5.51,3.56,.47,.78,1.14,1.43,1.42,2.38s.3,2.07-.02,2.96Z"/>
      <path class="cls-1" d="M34.64,83.23c-1.09-.2-2.59,1.87-3.08,2.34-.16,.15-3.59,2.3-3.58,2.27-.05,.16,.07,.35,.01,.45-.21,.4,.23,1.02-.24,1.26,.07-.62-.05-1.23-.21-1.83-.11-.4-.24-.9-.46-1.29,.45,.35-.2-.59-.03-.75,.47-.42,.73,.36,2.76-.58s2.74-1.53,4.04-3.59c.44-.7,1.08-1.24,1.31-2.15,.11-.46,.36-.99,.96-1.04-.21,.71-.4,1.4-.59,2.08-.27,.97-.54,1.91-.9,2.83Z"/>
      <path class="cls-1" d="M34.07,89.7c.01,.39-.05,.85-.15,1.24-.02,.08-.22,.15-.17,.3,.03,.1,.17,.06,.28-.01-.68,1.74,.13,1.47-.56,3.04,.76,.48-.06,1.22,.07,1.68l.95,3.3,.53,1.46c.23,.63,.74,1.16,.73,1.78-.42-.1-.58-.55-.9-.88l-1.34-1.37c-.21-.21-.41-.38-.65-.39-.08-.67-.22-1.33-.25-2.01-.05-1.49-.16-3,.07-4.54l.53-3.61c.04-.28,.18-.47,.38-.53,.28,.03,.34,.33,.49,.54Z"/>
      <path class="cls-5" d="M76.2,98.2h-.38c-.04-.74-.62-1.41-.87-2-.27-.65-.56-1.17-1.16-1.75-.31-.3-4.04-3.74-4.28-3.28-.14-.4-.21-.55-.64-.86-1.8-1.29-3.42-2.78-5.28-3.86v-.46c2.15,1.43,4.15,3.05,6.27,4.65,2.01,1.51,5.01,3.22,6.18,5.31,.36,.64,.1,1.61,.15,2.26Z"/>
      <path class="cls-4" d="M34.64,83.23c-.15,.38-.17,.82-.2,1.21-.04,.02-.11,.01-.15,.04l-1.14,1.01c-.29,.26-.05,.72-.16,.95-.17,.08-.36,.12-.55,.17-2.15,.53-3.01,1.68-4.45,1.67,.05-.1-.07-.28-.01-.45-.01,.03,3.42-2.12,3.58-2.27,.49-.46,1.99-2.53,3.08-2.34Z"/>
      <path class="cls-1" d="M19.83,83.56c-.9,.12-1.76,.45-2.69,.73-.02-.28,.11-.49,0-.67,.51,.13,.74-.41,1.12-.71l4.84-3.74c.26,1.17-1.11,.9-2.64,3.07-.31,.44-.68,.8-.64,1.33Z"/>
      <path class="cls-4" d="M51.79,117.93h.59c.15,.5-4.11,.61-4.06,1.63-.12-.16-.15-.3-.26-.4,0-.05-.03-.11-.02-.16,.12-.49-.29-1.24,.13-1.66,.35-.28,1.17-.09,1.17-.71,.1,1.04,1.4,1.31,2.44,1.31Z"/>
      <path class="cls-1" d="M34.08,89.88c-.14-.2-.21-.69-.49-.72l.35-3.25-.02-.18c0-.06,0-.12,0-.18,.08-.04,.13-.12,.2-.18,.24-.22,.2-.58,.18-.88,.03-.03,.11-.02,.15-.04,.71,.08,.37,2.75,.31,3.46s-.06,1.63-.68,1.97Z"/>
      <path class="cls-4" d="M49.2,115.51c-.07,.19-.03,.41-.08,.6-1.81,.47-1.13-.18-2.73-.29-.51-.04-.97-.32-1.46-.44,0-.19-.03-.6,.13-.8,.92-.11,1.67,.57,2.52,.69l1.62,.24Z"/>
      <path class="cls-2" d="M41.56,66.77c-.34,1.13,.46,1.44-.26,1.99-.64-.67-1.27-1.17-1.77-1.81,.18-.22,.83-.15,.83-.44v-1.22c.42,.51,.89,.9,1.2,1.48Z"/>
      <path class="cls-4" d="M49.12,116.11c.07,.06,.14,.13,.19,.2l.03,.31c0,.62-.82,.43-1.17,.71-.42,.42,0,1.18-.13,1.66-.03-.49-.42-.83-.51-1.29,.45-.82-.74-1.49-1.13-1.89,1.6,.11,.92,.77,2.73,.29Z"/>
      <path class="cls-17" d="M27.09,86.43c.22,.39,.35,.89,.46,1.29-.35,.29,.02,.77-.22,1.29-.51-.94-.88-2.81-1.47-3.37-.1-.1-.2-.2-.23-.33-.02-.08,.06-.19,.15-.25,.18,.12,.57,.28,.73,.47-.02,.49,.44,.66,.58,.91Z"/>
      <path class="cls-1" d="M51.79,117.93c-1.05,0-2.34-.27-2.44-1.31l-.03-.31c.26,.04,.57,.15,.68,.48,.34,1.03,1.44,.22,1.8,1.14Z"/>
      <path class="cls-13" d="M62.82,85.57c-1.05-.27-1.97-1.23-2.72-2.03,.09-.1,2.93,1.93,2.72,2.03Z"/>
      <path class="cls-13" d="M48.91,74.48c-1.29-.87-2.35-2.09-3.44-3.2,1.23,.96,2.35,2.08,3.44,3.2Z"/>
      <path class="cls-5" d="M63.59,85.98v.46c-.23-.14-.49-.2-.39-.56,.12,.05,.28,.03,.39,.1Z"/>
      <path class="cls-13" d="M45.29,71.1c-.35-.35-.8-.61-.9-1.1,.39,.28,.88,.58,.9,1.1Z"/>
      <path class="cls-1" d="M33.93,91.35c-.11,.07-.15-.02-.18-.12-.05-.15,.15-.21,.17-.3,.15-.03,.15,.15,.13,.26,0,.06-.08,.12-.12,.16Z"/>
      <path class="cls-13" d="M63.2,85.75c-.1,0-.38,.06-.24-.16,.14-.08,.25,0,.24,.16Z"/>
      <path class="cls-13" d="M59.76,83.21c-.08-.03-.13-.15-.19-.2,.08,.05,.14,.12,.19,.2Z"/>
      <path class="cls-13" d="M59.23,82.84c-.18-.06-.32-.2-.39-.37,.18,.07,.33,.19,.39,.37Z"/>
      <path class="cls-13" d="M58.68,82.47c-.32-.14-.58-.41-.74-.72,.29,.19,.6,.38,.74,.72Z"/>
      <circle class="cls-1" cx="36.35" cy="77.87" r=".09"/>
      <path class="cls-10" d="M61.23,44.51c1.31,1.38,1.85,.88,2.85,3.23,.1,.29,.02,.75,.05,1.06,.02,.24-.3,.5-.21,.78-.16,.04-.17,.21-.17,.35v.18c-.24,.12-.27,.45-.43,.62-.86,.88-1.76,1.72-3.01,2.12-2.45,.8-4.98,1.28-7.39,.56-.35-.1-.75-.06-1.1-.19l-1.46-.57c-.43-.17-.67-.76-1.14-.9,.02-.39-.57-.56-.64-.87-.11-.46-.34-.98-.34-1.46,0-1.93,1.65-2.75,2.36-3.93,1.59-.9,3.39-1.6,5.3-1.56,2.65,.06,3.07-.38,5.35,.57Zm-9.05,4.77c-.54,.74-.43,1.64,.29,2.38,1.97,2.02,6.81,1.36,8.49-.76,.2-1.11,.05-2.11-.85-2.58-.12-.22-.27-.31-.54-.36-.05-.13-.15-.28-.36-.37-2.47-1.09-5.49-.43-7.03,1.69Z"/>
      <path class="cls-1" d="M49.12,45.07c0-.2,.12-.69-.17-.76-.34-.08-.62,.09-.58,.3s-.17,.52,.12,.62c.2,.06,.45,0,.64,.02,.01,.08,.08,.22,.17,.24,0,.05-.06,.1-.05,.15-.28-.03-.35,.24-.44,.52-.16,.48-.71,.46-1.07,.36,.82-1.88,.57-4.16-.83-5.74-.69-.78-1.72-1.21-2.69-1.08s-1.89,.73-2.4,1.71c-1.05,2.01-.6,4.3,.76,6.01-.31,.29-.63,.42-1.05-.11-1.04-1.96-1.79-4.25-1.28-6.5,.59-2.66,3.71-4.48,6.18-3.22s3.62,5.35,2.71,7.49Zm-.02-1.18s-.04-.09-.09-.09-.09,.04-.09,.09,.04,.09,.09,.09,.09-.04,.09-.09Z"/>
      <path class="cls-1" d="M70.29,36.27c1.98,2.16,1.89,5.44,.85,8.08-.09,.22-.52,.32-.3,.75,.18-.17,.14-.42,.32-.56,1.83-1.21,1.19-3.71,4.52-3.78,0,.24-.24,.39-.53,.34-1.75-.28-.41,2.34-3.08,3.8-.76,1.09-1.61,2.1-2.72,2.66,.16-.31,.44-.71,.5-1.04,.02-.14,.18-.4,.26-.52,.15-.19,.38-.38,.47-.73-.22,.1-.35,.18-.52,.17h-.19c1.17-1.67,1.56-3.73,.89-5.73s-2.91-2.92-4.88-2.06c-1.17,.51-1.69,1.54-2.31,2.53-.36,.58-.66,1.48-.19,2.19,.02,.12,.02,.24,.03,.36-.18,.09-.21,.24-.15,.37,.1,.23,.23,.4,.45,.38,.1,.42,.43,1.03,.66,1.41-.38-.29-1.27-.42-1.72-.53-.11-.03-.25-.03-.36-.02,.07-.08,.29-.16,.32-.28-.42-1.23-.8-2.44-.65-3.68,.48,.06,.64-.3,.88-.7,1.51-2.52,.02-.64,2-2.46,1.13-1.04,2.41-1.07,3.81-.83,.51,.09,1.16-.25,1.65-.09Z"/>
      <path class="cls-1" d="M41.67,47.38c.22,.55,.61,.88,1.1,1.12-.02,.05,.03,.14,0,.18-.37,.61,.47,1.06,.98,1.31,.9,.43,1.52,.21,2.36-.12,.59-.23,1.28-.17,1.66-.87l.44,.42c0,.48,.23,.99,.34,1.46-1.03,.83-2.3,1.63-3.73,1.29-.61-.15-1.21-.24-1.81-.49l-1.92-.76c-.76-.3-1.32-.29-1.93-.83-.41-.37-1.19-.34-1.46-.86-.03-.07-.04-.22,.08-.35,.24,.24,.6,.87,.97,.66,.23-.12,.55-.61,.85-.43,.39,.23,.39,.92,1.04,.82l-1.04-1.55c-.18-.26-.44-.33-.65-.28-.59-.57-.56-1.55-.54-2.4-.42-.17-.76-.19-1.08-.24-.15-.02-.31-.06-.36-.22,2.21-.53,3.41,1.32,4.68,2.13Z"/>
      <path class="cls-5" d="M70.29,36.27c-.49-.16-1.14,.18-1.65,.09-1.41-.24-2.68-.21-3.81,.83-1.98,1.82-.49-.06-2,2.46-.24,.4-.4,.76-.88,.7,.03-.29,0-.6,0-.89,.15-.05,.14-.23,.13-.36,.24-1.46,1.02-2.79,2.33-3.65,1.92-1.27,4.47-.72,5.88,.82Z"/>
      <path class="cls-5" d="M50.58,45.49c-.71,1.18-2.37,1.99-2.36,3.93l-.44-.42c-.38,.7-.88,.94-1.47,1.17-.85,.33-1.75,.31-2.65-.12-.51-.25-1.42-.9-1.05-1.51,1.29,.8,3.03,1.18,4.14,.14,.51-.47,1.1-.54,1.48-1.28,.29-.57,1.12-1.02,1.02-1.77,0-.05,.05-.1,.05-.15,.43,.08,.86-.03,1.29,0Z"/>
      <path class="cls-1" d="M62.28,44.32c.12,0,.25,0,.36,.02-.11,.23,.06,.38,.14,.56,.17,.36,.44,.65,.76,.89,.06,.04,.14,.12,.18,.18,.1,.19,.37,.23,.5,.38,.57,.68,1.41,.79,2.22,.95,.93,.19,1.96,.03,2.73-.59,.2-.13,.43-.2,.67-.21-.06,.33-.34,.73-.5,1.04-.09,.05-.23,.03-.33,.07-.14,.05-.42-.04-.44,.17-.25-.07-.47,.16-.7,.2-2.54,.48-1-.4-3.8-.24-1-2.35-1.54-1.85-2.85-3.23,.35-.04,.69-.18,1.05-.18Z"/>
      <path class="cls-1" d="M49.24,45.64c.11,.74-.72,1.2-1.02,1.77-.38,.73-.97,.8-1.48,1.28-1.48,.53-2.48,.57-3.98-.18-.49-.25-1-.56-1.22-1.11-.02-.05-.06-.13-.09-.18,.29,.21,.79,.48,1.1,.19,.11,.02,.14,.12,.21,.19,.05,.06,.13,.13,.2,.16,.85,.44,1.73,.8,2.82,.46,.66-.21,1.59-.89,1.94-1.7,.36,.1,.91,.12,1.07-.36,.09-.28,.16-.55,.44-.52Z"/>
      <path class="cls-7" d="M62.87,33.12c.68,.1,1.01-.25,1.52-.39,2.44-.67,3.7-.59,6.12-1.27-.07,.46-.49,.57-.82,.59-1.9,.11-3.61,.58-5.38,1.26-.42,.16-.99,.54-1.43-.19Z"/>
      <path class="cls-6" d="M54.86,12.75c.9-.02,1.63,.01,2.3,.58,2.01,1.72,.27,1.93,2.77,2.73-.46,.19-1.01,.16-1.64,.15-.16-1.88-1.67-3.27-3.52-3.11-.05-.17,.05-.28,.09-.36Z"/>
      <path class="cls-6" d="M47.64,15.78c-.17,.02-.49,.28-.57,.03,.8-.98,1.66-2.17,3.18-2.12-.92,.77-1.83,1.34-2.62,2.09Z"/>
      <path class="cls-6" d="M47.64,15.78l-.11,.19c-.34,.6-.26,1.35,.17,1.89,.15,.19,.28,.39,.31,.64-.06,.02-.13,.02-.2,.03-.35-.4-.7-.78-1.12-1.11-.11-.31-.41-.56-.23-.89,.15-.28,.42-.48,.62-.72,.08,.25,.39-.01,.57-.03Z"/>
      <path class="cls-6" d="M49.19,18.71c.06,.09-.88,.57-.91,.51-.08-.11-.01-.05-.21-.32-.16-.21-.15-.24-.34-.48,.4-.14,1.21,.04,1.47,.28Z"/>
      <path class="cls-6" d="M54.86,12.75c-1.64-.05,1.94-1.8,2.19-1.61-.57,.97-1.55,1.04-2.19,1.61Z"/>
      <path class="cls-7" d="M62.45,33.34c-.2,.44-.52,.54-.95,.47-.93-.16-1-1.43-.85-1.65,.16-.24,.32-.74,.76-.53-.32,.52-.68,1.09-.3,1.48,.3,.31,.89,.51,1.35,.23Z"/>
      <path class="cls-7" d="M66.63,28.43c-.24-.07-.39,.08-.57,.18-.13,.08-.36,.11-.5,.18,.02-.17,.02-.34,.01-.51,.44-.18,3.76-.75,3.55-.1-.08,.26-1.37-.2-2.5,.25Z"/>
      <path class="cls-7" d="M65.58,28.28c.01,.17,0,.34-.01,.51l-2.22,.97c-.5-.1,2.58-2.16,2.24-1.47Z"/>
      <path class="cls-6" d="M47.59,13.59c-.08,.38,.1,.97-.35,1.24-.15,.09-.39,.04-.49,.13-.17,.16-.08,.4-.3,.66-.11-.72,.08-1.57,.72-1.98,.12-.07,.3-.03,.42-.05Z"/>
      <path class="cls-17" d="M53.04,13.44c-.27,.07-.58,.18-.87,.17-.07,0-.13,.02-.2,.03-.27,.03-.57-.02-.83,0,.06-.11,.11-.22,.14-.35,.81-.04,1.83-.92,1.83-.23,0,.11-.02,.25-.06,.38Z"/>
      <path class="cls-17" d="M64.69,16.53c-.04,.56-.09,.83-.05,1.37-.42-.14-.59-.47-.7-.97-.06-.3,.05-.37,.22-.46,.19-.1,.55-.29,.53,.06Z"/>
      <path class="cls-6" d="M65.18,12.72c.09,.65,.02,1.27-.08,1.91-.06-.06-.15-.06-.21,0,.01-.08,0-.18,0-.26,.31,.22-.08-.86-.03-.56l-.05-.35c.22-.28,.02-.56-.29-.87,.41-.21,.47,.17,.67,.13Z"/>
      <path class="cls-17" d="M74.77,40.53c-.57-.32,3.7-.53,3.35-.27l-3.35,.27Z"/>
      <path class="cls-4" d="M49.12,45.07c0,.06,0,.12,0,.18-.19-.02-.44,.04-.64-.02-.28-.09-.08-.4-.12-.62s.25-.39,.58-.3c.29,.07,.17,.56,.17,.76Z"/>
      <path class="cls-17" d="M52.16,13.8v-.19c.29,0,.6-.1,.87-.17,.21,.15,.43,.19,.76,.02-.17,.21-.39,.7-.63,.63l-1-.28Z"/>
      <path class="cls-17" d="M61.2,20.76c.2,.42-1.25,.44-1.29,.14,.56,0,1.15-.41,1.29-.14Z"/>
      <path class="cls-6" d="M65.1,14.62c-.07,.48,.08,1.06-.4,1.53,.1-.52,.13-1.02,.2-1.53,.06-.06,.15-.06,.21,0Z"/>
      <path class="cls-17" d="M62.96,20.84c-.41-.01-.77,.07-1.24-.05-.43,0,1.85-.61,1.24,.05Z"/>
      <path class="cls-17" d="M51.27,13.29c-.03,.12-.08,.24-.14,.35-.1,.04-.19,.3-.34,.17-.09-.08-.12-.19-.08-.4,.05-.27,.39-.11,.56-.11Z"/>
      <path class="cls-6" d="M50,10.71c-.09,.4-.29,.89-.73,.94,.21-.39,.45-.68,.73-.94Z"/>
      <path class="cls-6" d="M49.09,11.99c-.02,.47-.42,.55-.74,.72,.08-.36,.37-.66,.74-.72Z"/>
      <path class="cls-17" d="M54.53,13.21c-.27,.04-.38,.1-.5,.25-.13-.22-.07-.36,.03-.38,.18-.02,.38-.08,.46,.13Z"/>
      <path class="cls-6" d="M64.89,14.36c-.03-.19-.06-.37-.03-.56-.05-.3,.34,.78,.03,.56Z"/>
      <path class="cls-7" d="M66.63,28.43c-.18,.07-.33,.28-.57,.18,.18-.11,.33-.25,.57-.18Z"/>
      <path class="cls-1" d="M61.95,39.46c0-.15,.11-.24,.13-.36,.01,.13,.02,.31-.13,.36Z"/>
      <path class="cls-5" d="M71.16,44.53c-.18,.13-.14,.39-.32,.56-.22-.42,.21-.53,.3-.75l.02,.19Z"/>
      <circle class="cls-17" cx="64.36" cy="18.32" r=".11"/>
      <path class="cls-5" d="M76.38,40.73h.18c0,.21-.19,.21-.18,0Z"/>
      <path class="cls-17" d="M52.16,13.8c-.07-.02-.27-.05-.2-.16,.07,0,.13-.03,.2-.03v.19Z"/>
      <circle class="cls-17" cx="63.28" cy="29.98" r=".09"/>
      <path class="cls-5" d="M93.54,57.18h-.2s-.03-.54-.03-.54c0-.17,.12-.43,.04-.7-1.09-.18-1.79,.43-2.31,1.29-1.51,2.48-1.45,2.14-3.6,3.77-.17,.13-2.51,.7-2.01,1.66,.36,.7,1.83-.32,1.82,.47-.42,.14-.88,.32-1.1,.7-.11,.19-.6,.11-.51,.49,.24,1.09,2.76,.39,3.2,.46,1.26,.18,2.37,.65,3.68,.16,.46-.17,.33,.51,1.81-.72,.04,.16,.29,.32,.19,.55-.03,.07-.05,.16-.04,.25,0,.09,.09,.13,.19,.11,0,.06,0,.12,.02,.18-.05,.17-.09,.35-.1,.53-.16,.45-.6,.32-1.05,.44-3.19,.84-5.57,3.47-6.46,3.76-.64,.21-1.26,.53-1.52,1.23,.46,.39,.86,.75,1.34,.93-.29,.38-.09,2.08,.23,2.35,.58,.48,2.27,.4,3.69,.47,.35,.02,1.11-.54,1.11,.07-.32,.26-.31,.96,0,1.24,0,.21,.03,.46-.19,.56l-.15-.02c-.34-.37-1.08,.05-1.11,.52-.1,.02-.26,.1-.36,.08-.71-.15-1.4,.28-2.17,.28-.65,0-1.29-.28-1.97-.17-1.09,.18-2.07-.15-3.13-.3-.97-.14-1.98-.02-2.95,.02-.66,.03-1.15,.68-1.79,.6-.34-.04-.68-.46-.96-.13-.02,.57,.58,.89,.69,1.27,.18,.63,.54,1.1,.92,1.61,.28,.38,.32,1.04,.56,1.46-.24,0-.17,.42-.08,.61,.53,1.18,1.28,5.07,.21,6.07-.3-.07-.71,.15-.84,.4-.71,.22-1.45,.46-1.88,1.1-.39,.1-.54-.27-.81-.38-.53-.72-.06-1.35,.14-2.14,.38-1.55,.1-3.4-.18-4.87-.19-.97-.99-.95-1.54-1.27-.8-.46-1.46-1.34-2.05-2.03-.39-.45-.78-.66-1.21-1.04-.69-.61-1.32-1.46-2.4-1.32-.11,.02-.17,.4-.11,.47-.42-.62,1.88,1.96,1.72,2.03-.21,.27-3.14-2.65-2.74-2.33-.71-.57-1.38-1.07-2.07-1.7-1-.93-2.07-1.83-3.37-2.23-.78-.24-1.34-.68-2.04-1.05l-5.1-2.68c-1.52-.8,.64-1.94-.65-2.81-.19-.13-.51,0-.6,.13-.14,.19-.16,.4-.33,.84-.83-1.04-1.92-1.19-3.14-1.34-.61-.07-3.35-.77-3.29,.1-1.39-.94-2.69-2.03-3.86-3.22,.04-.25,.12-.49,.24-.72,1.09,.12,1.1,.68,2.36,.56,.06,.04,.14,.22,.28,.24,2.81,.48,7.91,.42,10.85,.25,.87-.05,1.57,.03,2.25,.6,.59,.5,1.48,.02,2.1,.15,1.2,.25,2.81-.08,4.2-.09,1.32,0,2.53-.1,3.81-.4,.73-.17,1.5-.23,1.45-1.28l.45,.13c-.02,.13,.12,.29,.09,.41-.11,.43,.21,.78,.34,1.22,.73,2.4,.31,5.16,2,4.9l1.21,3.14c.09,.22,.28,.41,.51,.34,.79-.23-.48-1.63-.39-3.26,.02-.39,.14-.92,.53-1.07,1.44-.54,.87,.69,2.38-2.5,.55-1.15,1.94-.99,2.82-1.59s1.16-1.96,2.29-2.35c.48-.17,.91-.48,1.26-.89,.98-1.16,2.89-2.18,3.09-2.49,.79-1.24,1.86-1.97,2.87-2.95,.81-.79,1.38-1.74,2.59-1.88,.76,.86,1.19,1.88,.9,3.2Z"/>
      <path class="cls-5" d="M51.8,53.22c-.1,.49,.42,.58,.74,.91l1.38,1.43,2.45,.92c1.22-.09,2.36-.4,3.57-.69,2.38-.56,1.37-1.24,2.35-1.54l-.26,1.22c-.18,.86,.31,1.91,.8,2.58,.1,.13,.48,.02,.55,.1,.5,.54-.07,1.07,.04,2.19-1,.09-1.64,.71-1.86,1.74-.98-.27-1.82-.35-2.83-.54,.61-.73,.81-2.05-.08-2.28-.76-.2-1.43-.15-1.93-.91-.27-.42-.75-.61-1.23-.76-.92-.3-3.73-1.71-3.29-1.66-.3-.04-.51,.13-.94,.38l-.66-2.69c-.09-.36-.58-.64-.27-.99l1.46,.57Z"/>
      <path class="cls-5" d="M71.06,62.92l-.45-.13c.05,1.06-.72,1.11-1.45,1.28-1.28,.3-2.49,.39-3.81,.4-1.39,.01-3,.33-4.2,.09-.62-.13-1.51,.35-2.1-.15-.67-.57-1.38-.65-2.25-.6-2.94,.17-8.05,.23-10.85-.25-.15-.03-.22-.2-.28-.24,.22-.33,.74-.84,1.21-.69,1.38,.43,.32-1.77,5.22-.13,.4,.13,.58,.74,1.15,.5,.47-.2,1.03,.16,1.46,.08,1.44-.28,2.81-.02,4.18,0,1.27,.02,2.43-.4,3.59-.52,1.08-.12,2.09-.22,3.17-.39l3.1-.47c.43-.07,.95-.39,1.21,0l.6,.9c.08,.12,.46-.17,.51-.03s0,.27-.01,.37Z"/>
      <path class="cls-1" d="M38.97,48.1c-.03,.13-.08,.27-.15,.38-.04,.08-.2,.37-.33,.26l-.86-.71c-.08,.5-.27,.98-.1,1.56,.25,.06,.24-.24,.18-.37,.27,.52,1.05,.5,1.46,.86,.61,.55,1.17,.53,1.93,.83l1.92,.76c.61,.24,1.21,.34,1.81,.49,1.43,.34,2.7-.46,3.73-1.29,.07,.31,.66,.48,.64,.87-.13,.02-.4,0-.4,.13-.06,1.01,.99,.44,.9,2.15-.02,.47-.6,1.23-1.33,1.06-1.29-.31-2.56-.84-3.81-1.33-.72-.28-1.24-.93-2.05-1.03-5.62-.7-4.21-2-4.83-2.7-.56-.65-.67-1.07-.44-1.97,.08-.32-.46-.85-.21-1.28s.4-.87,.31-1.3c.32,.05,.67,.07,1.08,.24-.02,.85-.05,1.82,.54,2.4Z"/>
      <path class="cls-5" d="M76.74,60.42c-.02,.46-2.39,4.48-3.04,7.41-.07,.3-.41,.55-.17,.95,.1,.17-.08,.49-.04,.67-1.69,.26-1.27-2.5-2-4.9-.13-.44-.46-.79-.34-1.22,.74-.04,1.09-.64,1.6-1.11,.64-.59,1.67-.64,2.42-1.01,.57-.28,.99-.77,1.57-.79Z"/>
      <path class="cls-1" d="M63.34,51.39c-.19,1.2-.76,1.53-1.04,2.86-.98,.29,.03,.97-2.35,1.54-1.21,.29-2.35,.6-3.57,.69l-2.45-.92-1.38-1.43c-.32-.33-.84-.42-.74-.91,.35,.14,.75,.09,1.1,.19,.01,.02-.02,.4,.08,.41,1.6,.21,2.01,1.36,4.99,1.25,.99-.04,1.71-.28,2.43-.9,.47-.41,1.27-.31,1.8-.71,.11-.84,.36-1.79,1.15-2.07Z"/>
      <path class="cls-1" d="M63.36,51.23l-.03,.17c-.79,.27-1.04,1.23-1.15,2.07-.54,.4-1.33,.3-1.8,.71-.71,.62-1.44,.87-2.43,.9-2.98,.11-3.38-1.05-4.99-1.25-.1-.01-.06-.39-.08-.41,2.41,.72,4.94,.24,7.39-.56,1.24-.41,2.15-1.24,3.01-2.12,0,.17,.08,.34,.06,.5Z"/>
      <path class="cls-5" d="M78.68,47.97c.63,.04,1.23,.22,1.84,.38,.41,.43,1.76,1.23,1.65,1.94-.91,.53-2.56-1.58-3.8-1.58h-.48s-.06-.52-.06-.52c.29,0,.56-.24,.87-.22Z"/>
      <path class="cls-5" d="M35.77,52.81c1.02,.52-2.51,2.72-2.76,1.74-.18-.69,1.19-1.28,1.65-1.57,.32-.19,.78-.08,1.11-.17Z"/>
      <path class="cls-8" d="M76.36,45.78c-.47,.27-.96,.02-1.27-.58-.37,.18-.48,.52-.67,.78-.42,.02-.48-.42-.69-.81-.5,.54-.75,1.3-1.56,.82,.87-.22,1.22-.91,1.6-1.74,.36,.25,.42,.68,.78,.6,.32-.07,.44-.38,.83-.42,.02,.71,.48,1.04,.99,1.34Z"/>
      <path class="cls-5" d="M42.04,62.06c.43,.13,1.03,.22,1.27,.69-.12,.22-.2,.47-.24,.72-.1-.04-.2-.02-.3-.02,.29-.16-.99-.41-1.08-1.02,.04-.18,.16-.34,.35-.36Z"/>
      <path class="cls-5" d="M35.74,51.09l-1.27-.07c-.05-.41,.32-1.11,.81-.99,.32,.09,.59,.57,.74,.81,.06,.1-.24,.24-.28,.24Z"/>
      <path class="cls-5" d="M77.81,48.19l.06,.52c-.05,.29-.24,.47-.51,.51-.38,.05-.67-.12-.58-.52,.34-.2,.57-.51,1.02-.51Z"/>
      <path class="cls-1" d="M63.59,51.22c-.05,.05-.17,.05-.23,.01,.02-.16-.05-.33-.06-.5,.17-.17,.19-.49,.43-.62,0,.36-.09,.75-.14,1.1Z"/>
      <path class="cls-5" d="M77.25,59.73c-.14,.2-.1,.57-.47,.53-.03-.3,.17-.52,.47-.53Z"/>
      <path class="cls-17" d="M75.81,107.49c.06,.28,.42,.18,.59,.44-.48-.08-2.13,.21-1.8,.44,.11,.08,.17,.32,.24,.29,.09-.03,.17-.33,.3-.32,.33,.04,.63,.45,1.01,.3,.6-.22,1.29-.06,1.54,.42,.33,.62,.17,1.37-.48,1.7l-1.67,.88c-.54,.28-1.41,.15-1.63-.45-.12-.32-.11-.87-.36-1-.22-.11-.8-.3-.96-.1-.39,1.33-.1,2.74,0,4.17-.48-.17,.08-.7-.37-.91-.22,1.3,.99,3.69,.65,4.64-1.38-.8-2.86,.31-4.13-.46-.4-.25-.35-.88-.37-1.24,.35-1.39,3.62-2.5,3.56-2.37,.1-.2,.08-.39,.05-.58l-.05-.34c-.2-1.36-.12-2.88,.65-4.09,.47-.74,1.61-1.08,2.34-1.36,.3-.11,.56-.04,.86-.07Z"/>
      <path class="cls-17" d="M88.93,116.22c-1.56-3.16-5.43,2.97-6.7,2.02-.08-.45,.04-1.19,.36-1.5,1.62-1.57,3.32-2.98,5.4-3.8,.88-.35,1.83,0,2.35,.65,.92,1.16,.16,3.01-.54,3.17-.33,.08-.71-.2-.88-.54Z"/>
      <path class="cls-4" d="M66.94,117.95c-.05,.12,.04,.36,.03,.5,0,.08,.13,.15,.19,.18,.01,.4-.09,.85,0,1.25-.5,.13-.94-.19-1.46-.33l-3.33-.91c-.64-.18-.99-.71-1.75-.73,.06-.06,.17-.2,.34-.24l2.06-.52c1.33-.34,2.67,.26,3.92,.81Zm.04,.95s-.04-.09-.09-.09-.09,.04-.09,.09,.04,.09,.09,.09,.09-.04,.09-.09Z"/>
      <path class="cls-6" d="M83.13,110.44c-.67,.26-.98,.85-1.67,.75-.55-.08-.94-.55-1.01-1.05-.08-.53,.1-1.03,.54-1.35,1.16-.86,3.96-.81,4.14,.33-.05,.69-1.35,1.08-1.99,1.32Z"/>
      <path class="cls-11" d="M75.81,102.74c.15,.55,.27,1.68,.2,2.33-.07,.73,.39,1.08,.78,1.59l.85,1.14c-.51-.36-1.21-.37-1.84-.31-.3,.03-.57-.04-.86,.07,.18-.33-1.13,.24-1.48-.75,.59-1.42,.42-1.17,1.53-2.86,.08-.13,.24-.37,.34-.56,.07-.12,.29-.66,.47-.66Z"/>
      <path class="cls-17" d="M79.54,120.98c-.24,.27-.36,.56-.56,.58-.18,.02-.8,.03-.77-.2,.15-1.64,2.21-3.85,3.13-2.93s-1.01,1.65-1.8,2.54Z"/>
      <path class="cls-11" d="M76.17,102.69c0,.59,.36,1.08,.45,1.64,.18,1.08,1.09,1.79,1.91,2.59,.28,.27,.14,.87,.55,.96-.24,.09-.38,.67-.76,.4l-.68-.48-.85-1.14c-.39-.52-.85-.86-.78-1.59,.06-.65-.07-1.26-.23-1.81-.04-.16,.03-.35,.02-.52l.36-.05Z"/>
      <path class="cls-5" d="M72,113.36c.03,.18,.04,.38-.05,.58,.06-.13-3.21,.98-3.56,2.37-.19,.27-.58,.5-.71,.85-.1-.12-.21-.23-.33-.33v-.3c.48-.29,.58-.9,.9-1.32,.88-1.17,2.3-1.87,3.76-1.84Z"/>
      <path class="cls-4" d="M67.68,117.15c-.16,.43-.4,.84-.5,1.29h-.21c0-.14-.07-.37-.03-.5,.25-.35,.03-.84,.4-1.12,.12,.1,.23,.21,.33,.33Z"/>
      <path class="cls-11" d="M67.16,118.62c-.06-.03-.2-.1-.19-.18h.21c-.01,.06-.02,.12-.02,.18Z"/>
      <path class="cls-17" d="M34.64,107.06c1.55-.01,2.8,.86,3.59,2.18,.07,.11,.05,.29,.2,.35-.09,.24-.05,.55-.29,.73-.19-.43-.13-.84-.61-.91,.94,1.84-.23,1.94,.77,3.56,.27,.44,.21,1.4-.42,1.42-.88,.03-1.34-2.33-2.4-3.28-1.74-1.56-3.43-1.24-3.08-2.61,.07-.26,.36-.42,.58-.61-.11-.12-.13-.31-.26-.26,.2-.14,.4-.46,.64-.52,.41-.08,.86-.04,1.27-.04Z"/>
      <path class="cls-17" d="M42.05,107.96c1,.12,1.77,.75,2.47,1.46,0,.05,0,.1,0,.15,.67,3.66,.56,2.42-.44,6.53-.33-1.76,.68-2.41,.39-4.29-.52,.33-.56,.91-.96,1.44-.02-.92-.05-1.56-.71-2.09-.89-.72,.43-.82-2.76-2.03,.26-.34,.43-.6,.34-.89,.09-.15,.25-.23,.4-.31,.35,.1,.89-.03,1.27,.02Z"/>
      <path class="cls-5" d="M45.08,113.52c.09-1.23,.16-2.47-.27-3.63,.3,.09,.61-.14,.9-.23,.76-.24,1.09,.48,1.54,.85,.98,.81,1.31,1.95,.6,3.09-2.16,.61-2.19-.55-2.76-.08Z"/>
      <path class="cls-17" d="M46.35,116.82c-.24,.25,.38,.19,.42,.6-.38,.21-.76,.43-1.17,.59-1.12,.42-1.38-1.37-1.39-1.26,.02-.25,.13-.51,.38-.67,.61,.18,1.3,.28,1.76,.74Z"/>
      <path class="cls-5" d="M44.93,115.37c.49,.12,.95,.4,1.46,.44,.39,.4,1.58,1.06,1.13,1.89-.38-.31-.71-.71-1.17-.88-.46-.46-1.15-.56-1.76-.74-.07-.22,.07-.46,.04-.68,.09,.01,.2-.05,.29-.03Z"/>
      <path class="cls-4" d="M40.77,107.94c-.15,.08-.31,.16-.4,.31-.68-.33-1.87,1.14-1.94,1.33-.15-.06-.14-.24-.2-.35,.8-.49,1.36-1.65,2.54-1.3Z"/>
      <path class="cls-3" d="M92.03,77.11c-.22,.63-.35,1.3-.83,1.76,.58-1.17-3.82-.09-3.47,.51-.16,0-.32,.02-.48,.05-.36,.06-.86,.09-.95,.51l-.49,.03c-.15,0-.29-.05-.48-.03-.14,.02-.42,.13-.33,.37l-.89,.04c-.11-.06-.24-.24-.41-.21-.21,.04-.44,.09-.46,.33l-.5,.02c-.14-.13-.31-.19-.48-.19-.19,0-.42,.12-.31,.35-.32-.15-.7-.06-1.01-.16-.6-.18-1.46-.43-1.85,.18-.1-.04-.24,.01-.34-.02-.38-.52-.75-.98-.92-1.61,0-.06,.07-.07,.15-.11,.41,.72,.97,.05,1.39,.05,1.11-.01,2.22,.27,3.35-.12,.54-.19,1.08,.03,1.59-.02,1.18-.11,2.26-.46,3.48-.48,.87-.01,1.94-.15,2.34-.89,.1,.02,.26-.05,.36-.08,.41-.09,.84-.2,1.11-.52l.15,.02c.06,.12,.17,.21,.3,.22Z"/>
      <path class="cls-5" d="M90.47,71.97c.24,.5,.8,.82,1.07,1.29l.2,.36c.47,1.12,.69,2.32,.29,3.48-.14,0-.25-.09-.3-.22,.22-.1,.19-.35,.19-.56v-1.24c0-.62-.76-.06-1.11-.07-1.42-.07-3.11,0-3.69-.47-.33-.27-.52-1.96-.23-2.35l.31-.03c1.07-.11,2.18-.1,3.27-.2Z"/>
      <path class="cls-17" d="M96.46,47.61c-.81,.25-1.25,1.12-1.94,1.67-.3,.24-.84,.17-.86,.84-.71-.48-1.54-.48-2.3-.23-.1,.4-.38,.43-.61,.46-.73,.1-.07-.88-1.58-.58,.23-.5,.72-1.12,1.32-1.1,.33,.02,.58,0,.78-.39,.15-.3,.12-.6-.26-.8,.77-.46,1.68-.47,2.58-.58,1.15-.14,2.15-.14,2.88,.7Zm-4.04,1.18c.63,.48,.89,.41,1.13-.06,.18-.36,.18-.74-.44-.85-.33-.06-.95,.71-.69,.91Z"/>
      <path class="cls-11" d="M93.34,57.17c.02,.3-.09,.73,.2,.91-.1,1.67-1.36,2.59-2.32,3.79-.03,.04-.03,.1-.05,.14-.45,.17-1.2,.15-1.61,.38,.09-.42-.52-.26-.75-.49-.33-.32,.09-1.01,.44-1.21,.59-.34,.85-.83,1.31-1.26,1.08-1.01,2.37-1.66,2.76-2.8l.03,.54Z"/>
      <path class="cls-5" d="M94.32,64.22c-1.49,1.23-1.35,.55-1.81,.72-1.31,.48-2.43,.01-3.68-.16-.43-.06-2.96,.64-3.2-.46-.08-.38,.4-.3,.51-.49,.3,.5,.83,.4,1.38,.34,1.84-.18,4.97,.16,5.57-.75s-1.78-1.29-1.92-1.42c.02-.04,.02-.1,.05-.14,1.56-.31,2.84,1.13,3.1,2.35Z"/>
      <path class="cls-7" d="M91.99,73.67c.7-1.03,1.45-.9,2.64-.95,.17,.28,2.28,.3,2.54-.01,.15-.19,.53-.18,.72-.09,.14,.07,.37,.39,.25,.5-.55,.53-1.46,.46-2.13,.64-1.36,.35-2.64,2.2-3.53,1.88-.07-.76-.2-1.4-.49-1.96Z"/>
      <path class="cls-17" d="M99.7,61.12v.6c-1.06,.41-1.45,1.18-1.78,2.18-.44,.52-1.41,.74-1.97,1.05-.39-.67-.58-1.26-.96-1.79,0-.19,0-.38,.04-.56h.32c.65,.33,1.84,.11,2.27-1.01,.34-.34,1.13-.05,1.56-.14-.01-.38-.31-.29-.41-.42,.31-.16,.53-.27,.72-.43,.1,.28,.14,.4,.23,.53Z"/>
      <path class="cls-3" d="M94.4,69.29c-.34,.96-1.05,1.73-2.09,2.04l-1.45,.44c-.02-.25-.52-.06-.64-.24-.24-.35,.04-.83,.09-1.17,.24-.08,.37-.36,.67-.37,.93-.04,.99-1.27,3.11-1.24,.21,.06,.23,.42,.32,.53Z"/>
      <path class="cls-9" d="M90.3,70.36c-.05,.34-.34,.82-.09,1.17,.12,.18,.62,0,.64,.24-.13,.04-.25,.19-.38,.2-1.09,.1-2.2,.08-3.27,.2-.09-.26-.28-.48-.3-.84,1.17-.94,2.61-.71,3.4-.96Z"/>
      <path class="cls-11" d="M94.6,67.99c0,.07,.07,.14,.07,.21l-.02,.18c-.15-.06-.26,.09-.21,.26,.02,.06,.03,.19,.15,.12-.03,.18-.13,.35-.19,.53-.09-.11-.11-.47-.32-.53-2.11-.03-2.17,1.19-3.11,1.24-.06-.65,1.29-1.58,2.27-1.76l1.37-.24Z"/>
      <path class="cls-17" d="M98.76,61.02c.1,.13,.4,.05,.41,.42-.42,.1-1.22-.2-1.56,.14-.42,1.11-1.62,1.33-2.27,1.01,.25-.65,1.38,0,1.44-1.07,.65-.11,1.27-.62,1.97-.5Z"/>
      <path class="cls-17" d="M96.79,61.52c-.06,1.06-1.19,.42-1.44,1.07h-.32s-.92-.84-.92-.84c.9-.5,1.84-.09,2.69-.23Z"/>
      <path class="cls-3" d="M91.2,78.87c-.14,.14-.13,.48-.39,.54l-.11-.53c-.64,.53-1.2,.36-1.86,.17-.43-.12-.75,.35-1.1,.33-.34-.6,4.06-1.68,3.47-.51Z"/>
      <path class="cls-6" d="M94.63,72.54v.18c-1.2,.05-1.94-.08-2.64,.95l-.25-.05-.2-.36c.04-.24-.23-.39-.08-.7,1.16,.06,2.2-.17,3.17-.03Z"/>
      <path class="cls-17" d="M90.49,48.67c.12-.28,.13-.59-.14-.81,.23-.23,.46-.26,.66-.38,.38,.2,.41,.5,.26,.8-.2,.39-.45,.41-.78,.39Z"/>
      <path class="cls-17" d="M95.02,62.59c-.03,.19-.04,.38-.04,.56-.35-.49-1.32-.86-1.04-1.27,.03-.05,.08-.09,.16-.13l.92,.84Z"/>
      <path class="cls-17" d="M86.08,50.48c-.08-.05,.03-.5-.06-.53,.3-.55,.77-1.11,1.4-1.22-.27,.54-.86,1.4-1.34,1.76Z"/>
      <path class="cls-5" d="M94.68,68.2c0-.07-.08-.14-.07-.21,.02-.72,.07-1.44-.02-2.15,.01-.18,.05-.36,.1-.53,.21,.92,.08,1.96,0,2.89Z"/>
      <path class="cls-6" d="M97.16,72.71c-.26,.32-2.37,.29-2.54,.01v-.18c.84,.12,1.66,.28,2.54,.17Z"/>
      <path class="cls-4" d="M93.54,58.08c-.3-.18-.19-.6-.2-.91h.2c-.06,.29,.02,.62,0,.91Z"/>
      <path class="cls-17" d="M99.71,61.72v-.6c.14,0,.41,.08,.34,.28-.04,.11-.21,.27-.34,.32Z"/>
      <path class="cls-3" d="M89.93,80.31c-.2,.15-.33,.41-.55,.54,0-.12,.01-.26,.09-.37,.1-.15,.29-.18,.46-.17Z"/>
      <path class="cls-5" d="M94.66,65.13c-.1,.03-.18-.02-.19-.11,0-.1,.01-.19,.04-.25,.02,.1,.15,.24,.15,.36Z"/>
      <path class="cls-4" d="M94.59,68.76c-.12,.07-.13-.05-.15-.12-.04-.17,.07-.32,.21-.26l-.07,.38Z"/>
      <path class="cls-11" d="M90.11,80.13c.05-.07,.11-.13,.18-.18l-.18,.18Z"/>
      <path class="cls-11" d="M90.48,79.77c.05-.07,.11-.13,.18-.19-.07,.05-.11,.13-.18,.19Z"/>
      <path class="cls-9" d="M32.45,86.62c-.65,1.31-2.11,1.79-2.35,2.15-.6,.91-1.5,1.45-2.5,1.64,.11-.21-.15-.7,.16-.85,.48-.24,.03-.87,.24-1.26,1.44,0,2.29-1.14,4.45-1.67Z"/>
      <path class="cls-5" d="M75.9,89.91c-.95-.4-1.95-1.44-2.93-2.05-1.86-1.17-3.13-2.54-4.01-3.03,.33-.3-.13-.59-.2-.86-.27-.99-.73-1.59-1.56-2.13l-5.46-3.55c-1.03-.67-3.67-2.62-2.94-4.02-.65-.36-1.19-.64-1.78-1.01l-2.53-1.6c-.78-.49-2.44-1.61-2.96-2.32-.38-.52-1.19-1.44-1.65-1.09l-.66,.5c-.46-.49-1.22-.87-1.75-1.3l-.56-.76c-.06-.87,2.69-.17,3.29-.1,1.22,.14,2.31,.29,3.14,1.34,.17-.44,.19-.65,.33-.84,.09-.12,.41-.26,.6-.13,1.29,.86-.88,2.01,.65,2.81l5.1,2.68c.7,.36,1.26,.81,2.04,1.05,1.3,.4,2.37,1.31,3.37,2.23,.68,.63,1.36,1.13,2.07,1.7-.4-.32,2.53,2.6,2.74,2.33,.16-.08-2.14-2.65-1.72-2.03-.05-.08,0-.46,.11-.47,1.08-.15,1.71,.7,2.4,1.32,.43,.38,.82,.6,1.21,1.04,.59,.69,1.25,1.56,2.05,2.03,.55,.32,1.36,.3,1.54,1.27,.28,1.47,.57,3.33,.18,4.87-.2,.79-.67,1.42-.14,2.14Zm-4.02-8.33c0-.11-.09-.2-.2-.2s-.2,.09-.2,.2,.09,.2,.2,.2,.2-.09,.2-.2Zm2.86,1.99c-.79-.39-1.18-.94-1.87-1.23-.25-.11-.77,.43-.78,.72,.45,.6,1.12,1.5,1.92,1.75,.41-.06,.72-.79,.73-1.24Z"/>
      <path class="cls-2" d="M68.97,84.83c-.3-.17-.5-.37-.8-.65-.82-.77-1.77-1.34-2.63-1.94-.98-.68-1.82-1.64-2.92-2.26-.42-.23-.63-.53-.99-.82l-9.57-7.57-1.63-1.45c-.53-.47-.8-.96-1.2-1.39l.66-.5c.47-.36,1.27,.56,1.65,1.09,.52,.71,2.18,1.83,2.96,2.32l2.53,1.6c.59,.37,1.13,.65,1.78,1.01-.73,1.4,1.91,3.35,2.94,4.02l5.46,3.55c.83,.54,1.29,1.14,1.56,2.13,.08,.28,.53,.56,.2,.86Z"/>
      <path class="cls-16" d="M79.81,91.89c-.25,.02-.49-.09-.91,.05,.27,.27,.35,.59,.39,.9,.06,.44-.55,.5-.61,.83l-.25,1.51c-.03,.17-.24,.12-.24-.05v-3.07c0-.23-.28-.53,.03-.71,.46,.44,1.03-.16,1.6,.54Z"/>
      <path class="cls-16" d="M82.21,102.56c0-.06-.09-.14-.08-.2,.14-.58-.32-1.08-.54-1.51,.51-1.15-.66-2.38-.21-3.49l.7,1.08c-.15-.24,.5,4.55,.13,4.12Z"/>
      <path class="cls-13" d="M78.18,95.13c-.27,.73-.27-3.79,0-3.07v3.07Z"/>
      <circle class="cls-15" cx="77.82" cy="95.67" r=".16"/>
      <circle class="cls-15" cx="77.37" cy="96.3" r=".09"/>
      <path class="cls-5" d="M48.41,24.47c-2.86,2.06-6.04,3.8-9.4,4.87-.1-.38,.34-.33,.58-.49,2.47-1.65,1.98-.18,3.23-2.01,.35-.51,1.1-.54,1.5-1,.36-.41,.77-.65,1.2-.98,.56-.43,1.12-1.1,1.94-.93,.36,.08,.59,.53,.94,.52Z"/>
      <path class="cls-17" d="M39.2,23.93c.31,.56,.61,1.14,1.02,1.63-.21,.05-.5,.48-.75,.04-.13-.23-.22-.5-.45-.6,.04-.17-.12-.25-.18-.36-.55-1.18-2.75-5.7-1.13-6.73-.36,1.78,.76,4.66,1.5,6.02Z"/>
      <path class="cls-3" d="M40.22,25.56c-.41-.49-.71-1.07-1.02-1.63,.26-.22-.15-.56,.06-.94,.48,.15,2.82,.56,2.6,1.27-.25,.77-.96,1.15-1.64,1.3Z"/>
      <path class="cls-2" d="M42.17,18.62c0,.31-.73,.69-.96,.55-.45-.6-.56-1.68-.1-2.37,.18-.28,1.14-.22,1.2,.11,.09,.51-.12,1.03-.13,1.71Z"/>
      <path class="cls-5" d="M73.53,68.78c-.24-.4,.1-.65,.17-.95,.22,.1,.16,.39,.16,.63,0,.14-.09,.41-.33,.32Z"/>
      <path class="cls-1" d="M82.68,44.7c-1.54,.67-1.6-.62-3.73,.44-.44,.22-.9,.12-1.31,.11-.02-.5,.57-.63,.87-.91,.65-.62,1.16-.6,1.99-.33,.74,.24,1.63,.12,2.18,.69Z"/>
      <path class="cls-1" d="M67.88,47.98c.04,.56-.56,.5-1,.61-.97,.24-1.85,.52-2.75,.2-.02-.31,.05-.78-.05-1.06,2.8-.16,1.26,.73,3.8,.24Z"/>
      <path class="cls-1" d="M75.89,44.9c.12-.18,.27-.22,.34-.2,.21,.05,.16,.31,.11,.43-.03,.07-.19,.11-.27,.13-.11,.02-.31-.16-.18-.36Z"/>
      <path class="cls-1" d="M69.01,47.62c.08,.12,0,.25-.15,.33-.11,.06-.19-.14-.29-.16,.02-.21,.3-.12,.44-.17Z"/>
      <path class="cls-4" d="M63.74,49.93c0-.14,.01-.31,.17-.35,.03,.11-.03,.37-.17,.35Z"/>
      <path class="cls-1" d="M74.95,96.2c.25,.59,.82,1.26,.87,2,.05,.84-.16,1.76-.46,2.66,.21,.1,.54,.02,.83,.05,0,.06,.01,.11,.01,.17,0,.24-.03,.48-.02,.71-.26,.04-.5,.13-.74,.24-.35-.7-.27-1.51-.15-2.38-.96-.71-1.24-3.53-.35-3.44Z"/>
      <path class="cls-11" d="M80.97,106.13c.07,.22-.21,.74-.52,.88-.62,.29-1.25-.86-1.77-1.02-.93-.3-1.33-1.16-2.06-1.66-.09-.56-.45-1.06-.45-1.64,0-.3,.03-.6,0-.91-.02-.24,0-.65,0-.89,.42,1.38-.37,2.28,1.52,3.73,1.35,1.03,1.34,1.26,3.27,1.5Z"/>
      <path class="cls-1" d="M76.2,98.2c.07,.89,.03,1.81-.01,2.7-.29-.03-.62,.06-.83-.05,.31-.89,.51-1.82,.46-2.66h.38Z"/>
      <circle class="cls-13" cx="77.55" cy="103.89" r=".09"/>
      <path class="cls-1" d="M86.28,94.42c.03,.33,.1,.71-.13,1-.21,.26-.6,.29-.92,.25-.73,.05-.63-1.36-.47-1.52,.49-.5,1.16-.12,1.53,.27Z"/>
      <path class="cls-13" d="M85.23,95.67c.33,.04,.71,.01,.92-.25,.23-.28,.16-.67,.13-1,.57,.5,.02,1.31-.49,1.63-.26,.01-.42,0-.5-.14-.04-.06-.05-.16-.05-.25Z"/>
      <path class="cls-1" d="M33.58,89.16c-.2,.07-.34,.25-.38,.53l-.53,3.61c-.23,1.54-.12,3.05-.07,4.54-1,.22-2.35-.5-2.28,.18-.17,.04-.2-.16-.19-.33l.07-2.46c.66-.14,.84-.68,.97-1.25l1.28-5.59c.17-.74,.98-1.31,.93-2.1,0-.08,.09-.18,.16-.21,.13-.05,.27-.1,.4-.16l-.35,3.25Z"/>
      <path class="cls-1" d="M29.96,98.94h.19c.29,.45,.35,1.06,.2,1.66-.4-.57-.35-1.12-.4-1.66Z"/>
      <path class="cls-1" d="M30.16,98.92h-.19c-.07-.22,.24-.24,.19,0Z"/>
      <path class="cls-5" d="M80.69,86.27c-.28,.37,.06,.84,0,1.31l-.17,1.25c-.31-.11-.74,.04-1.07-.04,1.07-1,.32-4.9-.21-6.07-.09-.2-.16-.62,.08-.61,.94,.82,1.11,3.05,1.39,4.17Z"/>
      <path class="cls-3" d="M80.93,80.48c-.54,.22-1.28,.42-1.85,.18,.39-.61,1.25-.36,1.85-.18Z"/>
      <path class="cls-3" d="M87.25,79.43c.04,.23-.12,.38-.29,.55-.19,.19-.45,.16-.66-.04,.08-.42,.58-.45,.95-.51Z"/>
      <path class="cls-3" d="M84.11,80.35c-.06,.15-.21,.22-.32,.26-.22,.08-.41,0-.55-.15,.03-.23,.26-.29,.46-.33,.17-.03,.29,.15,.41,.21Z"/>
      <path class="cls-3" d="M85.81,79.97c.11,.18-.07,.3-.18,.32-.19,.05-.47,0-.63,.02-.09-.24,.19-.36,.33-.37,.19-.02,.33,.04,.48,.03Z"/>
      <path class="cls-3" d="M82.74,80.48c-.12,.22-.57,.26-.79,.15-.11-.23,.12-.35,.31-.35,.17,0,.35,.06,.48,.19Z"/>
      <path class="cls-1" d="M83.19,46.76c.05,.23,.24,.39,.41,.68-.49,.43-3.2-.06-3.54-.33s-.52-.69-.44-1.14c1.34-.16,2.26,.38,3.57,.8Z"/>
      <path class="cls-11" d="M77.85,52.84c-.05-.12-.06-.16-.05-.14s.04,.08,.05,.14Z"/>
      <path class="cls-5" d="M72.6,108.92c-.77,1.21-.85,2.73-.65,4.09-.33,.13-.17-.49-.4-.59-.43-.2-1.4-.07-1.79,.31-1.95,1.93-4.46,2.08-4.62,.78,0-.03,1.78-2.17,1.89-2.38,.5-.98,.85-1.69,1.93-2.09,.21-.08,.28-.69,.56-.7,1.08-.03,1.78,.53,3.08,.58Z"/>
      <path class="cls-4" d="M68.24,115.2c-.32,.42-.42,1.03-.89,1.32-1.01,.45-2.33-.88-3.07-.28,.05-.39,.45-1.26,.92-1.31,1.05,.07,2.03,.44,3.04,.28Z"/>
      <path class="cls-4" d="M67.35,116.52v.3c-.38,.28-.16,.78-.41,1.12-1.24-.54-2.59-1.14-3.92-.81,.28-.37,.91-.62,1.25-.9,.74-.6,2.06,.74,3.07,.28Z"/>
      <path class="cls-1" d="M76.18,101.79c.02,.3,0,.6,0,.91l-.36,.05c-.37-.07-.25-.48-.37-.72,.23-.11,.48-.19,.74-.24Z"/>
      <path class="cls-5" d="M44.79,109.75c-.09-.05-.18-.11-.27-.18,0-.05,0-.1,0-.15,.1,.1,.29,.13,.27,.33Z"/>
      <path class="cls-9" d="M34.11,85.37c-.1,0-.18,.08-.2,.18,0,.06,0,.12,0,.18-.17,.06-.32,.17-.38,.34-.07,.03-.17,.13-.16,.21l-.38,.17c.11-.23-.13-.69,.16-.95l1.14-1.01c.01,.31,.06,.66-.18,.88Z"/>
      <path class="cls-1" d="M33.93,85.91c-.13,.06-.27,.11-.4,.16,.06-.17,.21-.28,.38-.34l.02,.18Z"/>
      <path class="cls-4" d="M33.91,85.55c.02-.1,.1-.17,.2-.18-.06,.06-.12,.13-.2,.18Z"/>
      <path class="cls-17" d="M57.4,48.19l.55,.47c-1.05-.17-2.15-.31-3.12,.31-.53,.34-.76,.83-.75,1.38,0,.66,.56,.76,.98,1.06,.83,.59,1.83,.45,2.78-.12,.7-.42,1.15-1.24,.66-1.91-.18-.24-.33-.54-.55-.72,.49,.08,2.46,.52,2.16-.34,.9,.47,1.05,1.47,.85,2.58-1.68,2.12-6.52,2.78-8.49,.76-.72-.74-.83-1.64-.29-2.38,.32,.46,.83,.02,1.3,.04s.68-.45,1.08-.6c.94-.35,1.84-.78,2.84-.53Z"/>
      <path class="cls-7" d="M59.57,47.96c-.46-.08-2.44-1.1-2.73-.24-.85-.09-1.7,.13-2.51,.41-.35,.12-.9,.1-1.08,.58-.09,.22,.19,.45,.23,.61-.46-.02-.98,.42-1.3-.04,1.55-2.12,4.56-2.78,7.03-1.69,.21,.09,.3,.24,.36,.37Z"/>
      <path class="cls-7" d="M59.24,47.59c.53,.19,1.12,.69,1.59,1.43,.3,.87-2.39-.28-2.88-.35l-.55-.47c.05-.11,.15-.19,.18-.4l-.74-.07c.29-.86,1.96-.28,2.4-.13Z"/>
      <path class="cls-17" d="M47.72,46.52c-.35,.81-1.28,1.49-1.94,1.7-1.09,.34-1.96-.02-2.82-.46,.06-.12-.12-.13-.2-.16-.06-.07-.1-.17-.21-.19-1.35-1.7-1.81-3.99-.76-6.01,.51-.97,1.43-1.58,2.4-1.71s2.01,.31,2.69,1.08c1.4,1.58,1.64,3.86,.83,5.74Zm-.81-4.79c-.17-.74-.73-1.01-1.31-.9-.52,.1-1,.54-1.07,1.16s.21,1.18,.66,1.44,.98,.13,1.32-.15c.42-.36,.55-.89,.4-1.54Z"/>
      <circle class="cls-4" cx="49" cy="43.89" r=".09"/>
      <path class="cls-17" d="M69.86,45.42c-.1,.14-.05,.1-.35,.37-.37,.13-.56,.47-1.08,.57-1.3,.24-2.52,0-3.54-.88-.6-.51-1-1.22-1.18-1.99,0,0,0,0,0-.01-.06-.26-.22-.44-.3-.75-.01-.12,0-.24-.03-.36-.08-.46,0-.9,.07-1.35,.11-.62,.33-1.21,.67-1.74,.44-.67,.94-1.28,1.76-1.64,1.97-.86,4.19,0,4.88,2.06s.28,4.07-.89,5.72Zm-1.47-4.7c.74-.39,.77-1.4,.38-2.02-.32-.52-1.13-.79-1.8-.45s-.72,1.25-.47,1.82c.31,.7,1.09,1.07,1.89,.65Z"/>
      <path class="cls-5" d="M64.27,44.79c.7,.98,2.45,2.18,4.16,1.56,.33,.37,.77-.31,1.08-.57,.23-.19,.25-.23,.35-.37h.19c0,.2,.02,.38,.05,.57-.08,.12-.24,.38-.26,.52-.24,0-.47,.07-.67,.21-.53-.07-.98,.38-1.53,.45l-1.2,.14c-.8-.16-1.65-.27-2.22-.95,.1-.14-.04-.24-.13-.29-.12-.07-.25-.09-.37-.08-.03-.06-.12-.14-.18-.18-.08-.4-.29-.93-.76-.89-.08-.18-.25-.33-.14-.56,.45,.11,1.24,.15,1.62,.45Z"/>
      <path class="cls-5" d="M64.04,39.39c-.11,.07-.79,2.22-.67,2.97-.48-.71-.5-1.61,.67-2.97Z"/>
      <path class="cls-5" d="M64.44,45.01c-.22,.01-1.14-1.63-1.25-1.87-.06-.12,0-.73,.17-.81,.07,.67,.52,1.44,1.07,2.68Z"/>
      <path class="cls-5" d="M70.11,45.99c-.03-.18-.05-.37-.05-.56,.18,0,.3-.08,.52-.17-.08,.35-.32,.54-.47,.73Z"/>
      <path class="cls-8" d="M38.77,49.54c-.4-.44,.37-.78,.05-1.05,.07-.12,.12-.25,.15-.38,.21-.05,.47,.02,.65,.28l1.04,1.55c-.65,.1-.65-.59-1.04-.82-.31-.18-.62,.3-.85,.43Z"/>
      <path class="cls-8" d="M38.82,48.49c.32,.27-.45,.61-.05,1.05-.38,.21-.74-.42-.97-.66-.13,.12-.11,.28-.08,.35,.06,.13,.07,.44-.18,.37-.17-.58,.02-1.06,.1-1.56l.86,.71c.13,.11,.29-.18,.33-.26Z"/>
      <path class="cls-1" d="M46.74,48.68c-1.11,1.04-2.69,.8-3.98,0,.03-.05-.02-.13,0-.18,1.5,.75,2.5,.71,3.98,.18Z"/>
      <path class="cls-5" d="M69.17,46.72c-.77,.62-1.81,.78-2.73,.59l1.2-.14c.56-.07,1-.51,1.53-.45Z"/>
      <path class="cls-5" d="M63.54,45.8c-.32-.24-.59-.53-.76-.89,.47-.04,.68,.49,.76,.89Z"/>
      <path class="cls-5" d="M64.22,46.35c-.13-.15-.4-.18-.5-.38,.12,0,.24,.01,.37,.08,.09,.05,.23,.15,.13,.29Z"/>
      <path class="cls-1" d="M42.97,47.76c-.07-.03-.15-.1-.2-.16,.08,.03,.25,.04,.2,.16Z"/>
      <path class="cls-5" d="M94.6,67.99l-1.37,.24c-.98,.17-2.32,1.1-2.27,1.76-.3,.01-.43,.29-.67,.37-.79,.25-2.23,.03-3.4,.96,.02,.36,.21,.58,.3,.84l-.31,.03c-.47-.18-.88-.53-1.34-.93,.26-.71,.89-1.03,1.52-1.23,.89-.29,3.27-2.92,6.46-3.76,.45-.12,.88,.01,1.05-.44,.09,.71,.04,1.44,.02,2.15Z"/>
      <path class="cls-5" d="M90.1,77.47c-.4,.74-1.47,.88-2.34,.89-1.21,.02-2.3,.37-3.48,.48-.51,.05-1.05-.17-1.59,.02-1.12,.39-2.24,.11-3.35,.12-.42,0-.98,.67-1.39-.05-.08,.04-.15,.05-.15,.11-.11-.38-.71-.7-.69-1.27,.27-.33,.62,.09,.96,.13,.64,.09,1.13-.57,1.79-.6,.98-.04,1.99-.16,2.95-.02,1.06,.15,2.03,.48,3.13,.3,.69-.11,1.33,.17,1.97,.17,.77,0,1.47-.44,2.17-.28Z"/>
      <path class="cls-5" d="M93.31,56.63c-.39,1.14-1.68,1.79-2.76,2.8-.45,.43-.72,.91-1.31,1.26-.35,.2-.77,.89-.44,1.21,.24,.23,.84,.07,.75,.49-.71,.44-1.52,.47-2.32,.74,.01-.79-1.46,.22-1.82-.47-.49-.96,1.84-1.53,2.01-1.66,2.15-1.63,2.09-1.29,3.6-3.77,.52-.86,1.22-1.47,2.31-1.29,.08,.27-.05,.53-.04,.7Z"/>
      <path class="cls-2" d="M91.2,61.97c.15,.12,2.54,.55,1.95,1.44s-3.8,.58-5.67,.76c-.56,.05-1.1,.16-1.41-.35,.23-.39,.69-.57,1.12-.72,.81-.27,1.64-.31,2.36-.75,.42-.24,1.18-.21,1.64-.39Z"/>
      <path class="cls-5" d="M91.58,76.87c-.28,.32-.71,.43-1.11,.52,.03-.47,.77-.89,1.11-.52Z"/>
      <path class="cls-5" d="M91.92,76.33c-.3-.28-.32-.98,0-1.24v1.24Z"/>
      <circle class="cls-11" cx="66.89" cy="118.9" r=".09"/>
      <path class="cls-17" d="M92.42,48.79c-.26-.2,.36-.97,.69-.91,.62,.11,.62,.49,.44,.85-.24,.47-.49,.54-1.13,.06Z"/>
      <path class="cls-5" d="M74.74,83.57c-.01,.45-.32,1.18-.73,1.24-.8-.25-1.47-1.15-1.92-1.75,0-.29,.53-.83,.78-.72,.69,.29,1.09,.84,1.87,1.23Z"/>
      <circle class="cls-5" cx="71.68" cy="81.57" r=".2"/>
      <path class="cls-5" d="M57.95,48.66c.22,.19,.37,.48,.55,.72,.05,.5-.48,.46-.87,.6-.93,.33-1.7,.94-2.74,.9-.03,.28-.05,.5,0,.66-.42-.3-.79-.54-.8-1.2,0-.55,.22-1.04,.75-1.38,.98-.62,2.07-.48,3.12-.31Z"/>
      <path class="cls-4" d="M54.88,51.55c-.04-.16-.02-.37,0-.66,1.04,.04,1.82-.57,2.74-.9,.39-.14,.92-.11,.87-.6,.48,.67,.08,1.55-.61,1.97-.95,.57-2.18,.78-3.01,.2Z"/>
      <path class="cls-7" d="M56.84,47.72l.74,.07c-.03,.2-.13,.28-.18,.4-1-.25-1.9,.17-2.84,.53,.1-.12,.14-.28,.03-.38-.09-.09-.18-.15-.26-.22,.81-.27,1.66-.49,2.51-.41Z"/>
      <path class="cls-7" d="M54.33,48.12c.08,.07,.17,.13,.26,.22,.11,.1,.06,.26-.03,.38-.4,.15-.62,.62-1.08,.6-.04-.16-.32-.4-.23-.61,.19-.48,.73-.46,1.08-.58Z"/>
      <path class="cls-5" d="M46.91,41.73c.15,.65,.02,1.19-.4,1.54-.33,.28-.86,.42-1.32,.15s-.74-.81-.66-1.44,.56-1.06,1.07-1.16c.58-.11,1.13,.16,1.31,.9Z"/>
      <path class="cls-1" d="M68.39,40.72c-.8,.42-1.58,.05-1.89-.65-.25-.56-.22-1.47,.47-1.82s1.48-.07,1.8,.45c.39,.62,.36,1.64-.38,2.02Z"/>
      <path class="cls-5" d="M69.51,45.79c-.11,.39-.76,.94-1.08,.57,.45-.11,.71-.44,1.08-.57Z"/>
    </g>
    <path class="cls-17" d="M91.15,82.13s5.68,0,8.29-3.31l-3.11,.84s-3.39,1.9-5.18,2.47Z"/>
    <path class="cls-17" d="M83.25,51.79s5.48-2.5,8.52,1.25c0,0,4.16,4.04-.55,8.83,0,0,4.63-3.15,4.29-5.38-.35-2.24-5.45-9.82-12.26-4.7Z"/>
    <path class="cls-17" d="M83.25,51.79s5.47-8.56,13.32-5.58c0,0,5.98,2.57,2.65,9.29,0,0-1.72,3.82-8.23,6.54,0,0,.47-.35,.84-.89,2.62-3.83,.13-9.08-4.49-9.54-1.14-.12-2.49-.06-4.1,.18Z"/>
    <path class="cls-17" d="M10.72,83.91s-2.82,1.35-3.09,4.5,.93,5.45,3.87,6.48c0,0,5.11,3.09,9.82,.78,0,0,4.08-1.52,5.18-3.23,0,0,3.19-2.96,0-6.92l-15.79-1.61Z"/>
    <path class="cls-17" d="M92.42,82.03s-2.41,.67-7.56,.59c0,0,6.87-1.46,7.39-6.74,0,0,1.13,6.17,.17,6.15Z"/>
  </g>
  <path class="cls-17" d="M80.91,106.97s2.72-1.2,4.91,1.34c0,0-2.14-.89-3.63-.86s-3.65,1.1-3.84,1.51-.13-1.17,2.56-1.98Z"/>
  <path class="cls-17" d="M70.01,122.63s-2.22-1.13-2.63-1.93c0,0-1.41-2.3,1.28-4.93,0,0,.66-1.01,3.29-1.84l-1.94,8.7Z"/>
  <path class="cls-17" d="M41.48,125.28s7.77-3.17,6.58-6.62c0,0-.43-2.21-3.47-2.58,0,0,2.4-6.18-1.31-7.87,0,0-3.41-1.36-4.85,1.38,0,0-1.09-3.12-5.22-2.56,0,0-2.96,.3-3.22,4.68-.26,4.38,11.48,13.57,11.48,13.57Z"/>
  <path class="cls-1" d="M35.39,97.56c-.34-4.8-.76-12.26-.35-15.65,0,0-2.03,5.39-2.09,8.92s-2.72,12.05,5.22,15.3c7.94,3.25,8.58,2.78,8.58,2.78l-7.32-4.63c-2.34-1.48-3.84-3.97-4.03-6.73Z"/>
</svg>