<?xml version="1.0" encoding="UTF-8"?>
<svg id="_圖層_1" data-name="圖層 1" xmlns="http://www.w3.org/2000/svg" xmlns:xlink="http://www.w3.org/1999/xlink" viewBox="0 0 215.64 264.06">
  <defs>
    <style>
      .cls-1 {
        fill: #fff;
      }

      .cls-2 {
        filter: url(#outer-glow-3);
      }

      .cls-3 {
        filter: url(#outer-glow-4);
      }

      .cls-4 {
        filter: url(#outer-glow-5);
      }

      .cls-5 {
        filter: url(#outer-glow-6);
      }

      .cls-6 {
        filter: url(#outer-glow-2);
      }
    </style>
    <filter id="outer-glow-2" filterUnits="userSpaceOnUse">
      <feOffset dx="0" dy="0"/>
      <feGaussianBlur result="blur" stdDeviation="5"/>
      <feFlood flood-color="#231815" flood-opacity=".75"/>
      <feComposite in2="blur" operator="in"/>
      <feComposite in="SourceGraphic"/>
    </filter>
    <filter id="outer-glow-3" filterUnits="userSpaceOnUse">
      <feOffset dx="0" dy="0"/>
      <feGaussianBlur result="blur-2" stdDeviation="5"/>
      <feFlood flood-color="#231815" flood-opacity=".75"/>
      <feComposite in2="blur-2" operator="in"/>
      <feComposite in="SourceGraphic"/>
    </filter>
    <filter id="outer-glow-4" filterUnits="userSpaceOnUse">
      <feOffset dx="0" dy="0"/>
      <feGaussianBlur result="blur-3" stdDeviation="5"/>
      <feFlood flood-color="#231815" flood-opacity=".75"/>
      <feComposite in2="blur-3" operator="in"/>
      <feComposite in="SourceGraphic"/>
    </filter>
    <filter id="outer-glow-5" filterUnits="userSpaceOnUse">
      <feOffset dx="0" dy="0"/>
      <feGaussianBlur result="blur-4" stdDeviation="5"/>
      <feFlood flood-color="#231815" flood-opacity=".75"/>
      <feComposite in2="blur-4" operator="in"/>
      <feComposite in="SourceGraphic"/>
    </filter>
    <filter id="outer-glow-6" filterUnits="userSpaceOnUse">
      <feOffset dx="0" dy="0"/>
      <feGaussianBlur result="blur-5" stdDeviation="5"/>
      <feFlood flood-color="#231815" flood-opacity=".75"/>
      <feComposite in2="blur-5" operator="in"/>
      <feComposite in="SourceGraphic"/>
    </filter>
  </defs>
  <g class="cls-6">
    <path class="cls-1" d="M142.19,59.7c.3-.6,1.27-.36,1.21,.12-.42,3.93-1.75,9.42-3.62,11.9-3.08,4.11-7.61,.97-4.65-2.36,2.66-3.02,5.37-6.46,7.06-9.66Zm30.13,14.13c-1.75-1.33-4.35-2.29-5.92-2.9-.6-.24-.54-.97,.18-.91,6.4,.3,7.25,.24,7.91-.42,.72-.72,1.33-1.69,1.93-3.38,.85-2.48,1.57-7.19,1.99-13.47h-32.43c-.3,2.23-2.72,3.08-4.95,2.66V21.17l4.05,.79c.6,.12,.97,.42,.97,.85v.06h28.62c1.21,0,1.81-.6,3.02-1.87,1.45,1.45,2.36,2.11,2.36,3.08,0,1.33-1.33,1.99-3.38,1.99h-14.13v5.74h9.24c1.03,0,1.57-.48,2.72-1.69,1.27,1.27,2.17,2.11,2.17,2.84,0,1.39-1.15,1.99-3.14,1.99h-10.99v5.74h9.96c1.15,0,1.69-.54,2.84-1.75,1.33,1.27,2.24,1.93,2.24,2.9,0,1.51-1.33,1.99-3.2,1.99h-11.84v5.74h13.59c1.09,0,1.75-.42,2.54-1.39l3.99,1.45c2.42,.91,.72,2.42,.66,3.5-.12,1.51-.3,18.78-7.49,21.38-1.15,.42-2.05,.48-3.5-.66Zm-14.86-42.03v-5.74h-11.41v5.74h11.41Zm0,8.88v-5.74h-11.41v5.74h11.41Zm0,8.88v-5.74h-11.41v5.74h11.41Zm-7.91,9.06c2.05,2.78,4.11,6.28,4.41,8.94,.42,3.8-4.65,5.98-4.95,.97-.18-3.14-.36-6.76-.6-9.48-.06-.6,.66-1.09,1.15-.42Zm8.33-1.51c2.66,1.93,5.13,4.11,6.28,6.64,1.69,3.74-2.9,6.88-4.47,2.11-1.03-3.08-1.93-6.04-2.78-7.97-.3-.66,.3-1.27,.97-.79Zm9.12-1.33c2.78,1.27,5.44,2.42,6.94,4.35,2.29,2.9-1.51,6.7-3.74,2.9-1.51-2.6-2.48-4.11-3.93-6.28-.42-.66-.06-1.33,.72-.97Z"/>
    <path class="cls-1" d="M148.05,95.34h-12.8c-.91,0-1.21-.6-2.29-3.14h14.43c1.33,0,1.93-.12,3.08-1.03l2.11,1.93c1.09,1.03,1.27,1.21,.54,2.42-1.45,2.36-3.56,5.37-5.98,8.39,2.29,1.27,4.95,2.66,6.64,4.35,3.08,3.08-.36,7.79-3.44,3.2-1.39-2.05-2.66-3.93-3.68-5.37v25.73c0,2.66-2.24,3.74-4.71,3.2v-25.24c-2.78,2.9-5.74,5.37-8.45,6.94-.72,.42-1.33-.3-.79-.85,6.04-6.04,13.04-15.4,15.34-20.53Zm-6.82-14.98c2.11,1.51,4.77,3.32,5.86,5.68,1.81,3.99-2.17,6.94-3.93,2.72-1.09-2.66-2.23-6.22-2.84-7.55-.3-.66,.12-1.39,.91-.85Zm6.94,49.58h10.39v-46.98l3.8,.85c.79,.18,.97,.42,.97,.79h9.24c.97,0,1.57-.48,2.48-1.39l4.05,1.33c2.29,.72,.72,2.23,.72,3.44v41.97h1.93c1.21,0,1.75-.72,2.96-1.99,1.45,1.39,2.36,2.05,2.36,3.08,0,1.51-1.33,2.11-3.44,2.11h-32.97c-.97,0-1.21-.6-2.48-3.2Zm26.87-30.56v-11.66h-11.72v11.66h11.72Zm0,14.98v-11.84h-11.72v11.84h11.72Zm0,15.58v-12.44h-11.72v12.44h11.72Z"/>
  </g>
  <g class="cls-2">
    <path class="cls-1" d="M79.64,64.61c1.09-2.22,2.26-5.21,3.08-8.24,.18-.59,.91-.54,.91-.05,0,2.31-.05,6.7-.86,9.42-.91,3.03-4.89,2.45-3.12-1.13Zm5.16-16.89l2.58,.59c.5,.14,.82,.32,.82,.72v36.82c0,2.22-1.45,2.94-3.4,2.63V47.72Zm17.39,34.78c-2.04-1.68-3.85-3.85-5.3-6.52h-2.99c-.72,0-.95-.72-1.63-2.22h17.35c.82,0,1.27-.05,2.13-.82l1.81,1.49c.77,.63,.95,.86,.36,1.63-1.63,2.13-3.89,4.53-6.39,6.39,3.8,1.68,7.97,2.67,11.87,3.22,.68,.09,.41,.36,.05,.68-2.76,2.4-2.76,2.26-4.76,1.86-1.77-.36-5.84-1.4-10.01-3.99-5.43,2.85-11.05,3.76-14.9,4.12-.82,.09-1.04-.72-.36-.91,3.12-.86,8.15-2.26,12.77-4.94Zm-12.36-28.12c1.18,1.18,2.35,2.49,2.85,4.17,.77,2.54-2.45,4.17-2.94,1.36-.36-1.99-.59-4.21-.68-5.03-.09-.68,.41-.86,.77-.5Zm1.86,7.11l2.49,.5c.68,.14,.91,.36,.91,.63h16.98c.68,0,1.09-.32,1.68-1l2.67,.91c1.77,.59,.72,1.4,.72,2.26v5.8c0,1.68-1.63,2.17-3.4,1.9v-1.36h-18.7c-.32,1.36-1.77,1.77-3.35,1.58v-11.23Zm7.38,7.52v-4.3h-3.99v4.3h3.99Zm-3.62-21.06l2.54,.54c.63,.14,.86,.32,.91,.59h9.47c.72,0,1.13-.23,1.72-.91l2.67,.77c1.81,.5,.77,1.22,.77,2.26v8.11c0,1.86-1.68,2.22-3.44,2.08v-1.54h-11.23c-.18,1.54-1.72,1.95-3.4,1.68v-13.59Zm14.63,5.48v-2.22h-11.19v2.22h11.19Zm0,4.3v-2.17h-11.19v2.17h11.19Zm-5.52,23.23c2.04-1.4,3.71-3.03,5.07-4.98h-10.55c1.68,2.04,3.4,3.71,5.48,4.98Zm1.86-11.96v-4.3h-4.03v4.3h4.03Zm7.34,0v-4.3h-4.03v4.3h4.03Z"/>
    <path class="cls-1" d="M105.72,109.35h-15.35v3.35h21.24c.82,0,1.13-.27,1.99-1.27,.86,.91,1.54,1.54,1.54,2.08,0,1.04-.86,1.45-2.26,1.45h-22.51v3.03h20.61c.82,0,1.18-.32,1.86-1.04l2.94,1c1.9,.63,.63,1.9,.59,2.63-.27,4.03-.86,12.32-5.25,13.31-1.04,.23-1.58-.09-2.49-1-.91-.91-1.86-1.45-2.49-1.86-.36-.23-.14-.63,.27-.59,3.26,.27,3.44,.32,4.35-.77,1-1.22,1.63-4.62,1.95-9.33h-16.8v7.11h6.07v-5.52l2.81,.59c.63,.14,.72,.36,.72,.63v6.75c0,1.49-1.81,2.45-3.53,1.99v-1.99h-15.94v.04c0,1.72-1.77,2.36-3.53,1.95v-10.01l2.81,.63c.63,.14,.72,.36,.72,.68v4.26h6.34v-7.11h-2.04c-.18,1.81-1.95,2.31-3.62,1.95v-26.22l2.9,.54c.45,.09,.77,.41,.77,.59v.05h1.77c.86-1.59,1.58-3.31,2.22-5.12l2.45,1.4c.77,.45,.86,.77,.27,1.36-.77,.72-1.68,1.59-2.58,2.36h9.6c.77,0,1.18-.36,1.63-.95l3.08,.86c1.86,.5,.59,1.81,.59,2.49v9.51c0,1.68-1.77,2.35-3.67,2.08v-1.9Zm0-7.02v-2.85h-15.35v2.85h15.35Zm0,4.8v-2.63h-15.35v2.63h15.35Z"/>
    <path class="cls-1" d="M108.21,160.31v-5.48l2.9,.63c.59,.14,.77,.32,.77,.68v4.17h3.53c.86,0,1.31-.59,2.17-1.45,1.18,1.09,1.81,1.58,1.81,2.26,0,1.18-.95,1.59-2.54,1.59h-4.98v14.04c0,2.08-1.9,3.49-4.03,2.08-1.22-.82-3.22-1.86-5.53-2.58-.54-.18-.45-.72,.09-.68,1.09,.09,5.3,.18,5.57,.09,.27-.09,.23-.23,.23-.41v-12.54h-13.68c-.68,0-.91-.41-1.77-2.4h15.44Zm-4.71-16.53v-5.71l2.85,.54c.63,.14,.82,.41,.82,.77v4.39h7.02c.82,0,1.31-.45,2.13-1.4,1.04,1.04,1.77,1.59,1.77,2.26,0,1.13-.95,1.59-2.45,1.59h-8.47v5.62h5.21c.81,0,1.36-.5,2.04-1.36,.86,.82,1.77,1.49,1.77,2.13,0,1.13-1,1.59-2.35,1.59h-17.21c-.63,0-.82-.45-1.72-2.36h8.6v-5.62h-8.6c-.63,0-.95-.5-1.77-2.45h10.37Zm-5.57,20.47c2.54,1.31,4.17,2.76,5.03,4.3,1.4,2.54-1.36,5.75-3.17,1.77-1-2.22-1.72-3.8-2.54-5.43-.18-.36,0-1,.68-.63Z"/>
    <path class="cls-1" d="M81.49,184.27l2.85,.63c.32,.09,.63,.36,.68,.54h6.07c.82,0,1.31-.32,1.86-1l2.94,.72c1.77,.45,.59,1.59,.59,2.54v9.74c0,1.95-1.72,2.58-3.53,2.26v-1.77h-7.93v24.05c0,1.81-1.86,2.63-3.53,2.26v-39.99Zm11.46,6.34v-2.99h-7.93v2.99h7.93Zm0,5.12v-2.9h-7.93v2.9h7.93Zm9.01-11.32l2.76,.59c.41,.09,.63,.32,.72,.45h5.75c.91,0,1.36-.32,1.86-1.04l2.9,.77c1.9,.5,.63,2.04,.63,2.63v33.97c0,2.13-2.17,3.49-3.76,2.31-.86-.63-2.08-1.36-3.26-1.86-.72-.32-1.31-.54-2.04-.82-.41-.14-.32-.68,.09-.68,.95,0,5.12,.14,5.3-.05,.09-.09,.14-.18,.14-.36v-22.46h-7.61c-.27,1.72-2.17,1.99-3.49,1.72v-15.17Zm11.1,6.2v-2.99h-7.56v2.99h7.56Zm0,5.03v-2.81h-7.56v2.81h7.56Z"/>
  </g>
  <g class="cls-3">
    <path class="cls-1" d="M35.44,69.22c-2.04,1.49-4.3,3.08-6.7,4.62-1.18,.77-1.36,.72-4.21-1.95,1.22-.45,2.36-.91,3.4-1.31v-19.7l2.9,.68c.45,.09,.72,.36,.72,.63v16.8c1.4-.63,2.63-1.27,3.9-1.95v-23.78l2.9,.68c.45,.09,.72,.32,.72,.63v36.73c0,2.17-1.81,2.76-3.62,2.4v-14.49Zm14.9,3.62c-.36-.5-.63-1-.91-1.49-1.9-3.67-3.35-7.65-4.39-13.27-1.09,2.04-2.45,4.03-3.94,5.39-.5,.45-1.13,.09-.77-.5,1.58-2.76,3.35-7.2,4.3-10.33,1-3.26,1.95-6.7,2.58-9.87l2.54,1.22c.77,.36,.72,.77,.63,1.18-.32,1.36-1.27,4.08-2.63,7.25h13.31c.77,0,1.31-.45,2.17-1.45,1,1.04,1.77,1.63,1.77,2.26,0,1.18-.95,1.59-2.49,1.59h-3.49c-.63,6.7-2.08,13.09-4.98,17.93,2.85,3.4,6.52,6.39,11.14,8.74,.36,.18,.41,.5,.14,.63l-1.68,.77c-2.13,.95-2.17,.82-3.8-.32-1.54-1.04-4.94-3.89-7.65-7.2-3.08,3.76-8.06,7.43-11.73,8.38-.59,.14-1.09-.41-.5-.82,2.85-1.9,7.2-5.25,10.37-10.1Zm1.31-3.49l.32,.54c1.9-4.03,2.81-9.19,3.35-15.08h-8.6l-.05,.05c1.22,5.66,2.4,10.37,4.98,14.49Z"/>
    <path class="cls-1" d="M39.01,117.86l1.81,1.4c1.13,.86,1.04,1.13,.45,1.63-2.81,2.26-9.24,6.48-15.67,7.79-1.04,.23-.82-.68-.45-.86,4.98-2.4,11.14-6.7,13.86-9.96Zm4.71-3.17v-2.81l2.94,.59c.45,.09,.77,.36,.77,.63v1.59h13.59c.82,0,1.31-.45,2.13-1.31,.95,.95,1.68,1.49,1.68,2.08,0,1.09-.86,1.54-2.36,1.54h-15.04v9.6c0,2.13-1.95,2.85-3.71,2.45v-12.05H27.15c-.77,0-1-.45-1.81-2.31h18.39Zm-18.02-11.73c2.22-1.99,4.21-4.62,6.2-7.56,1.63-2.45,3.22-5.16,4.03-7.38l2.04,1.4c.95,.63,1.13,.81,.63,1.63-.36,.59-.82,1.31-1.36,2.08h8.88c-.14-.14-.32-.27-.45-.5-1.18-1.63-2.17-3.13-2.85-3.9-.41-.45,.14-.81,.63-.68,2.36,.68,3.94,1.4,4.62,2.13,1,1.09,.77,2.31,.04,2.94h8.74c.59,0,1.13-.41,1.9-1.31,1,1,1.68,1.45,1.68,2.04,0,1.09-.77,1.49-2.36,1.49h-10.01v3.31h7.34c.5,0,1.13-.36,1.86-1.31,1,.95,1.63,1.54,1.63,2.04,0,1.13-.82,1.45-2.31,1.45h-8.51v3.08h7.52c.5,0,1.13-.27,1.9-1.27,1.04,1,1.63,1.45,1.63,1.99,0,1.04-.86,1.49-2.35,1.49h-8.7v3.08h9.24c.54,0,1.18-.41,1.95-1.36,1,.95,1.68,1.45,1.68,2.04,0,1.09-.82,1.49-2.4,1.49h-22.42c-.14,1.86-1.86,2.63-3.58,2.22v-14.72c-1.81,1.9-3.94,3.62-6.2,4.8-.63,.32-1.22-.23-.63-.72Zm18.75-4.3v-3.31h-8.33v3.31h8.33Zm0,5.25v-3.08h-8.33v3.08h8.33Zm0,5.3v-3.08h-8.33v3.08h8.33Zm5.71,9.33c5.34,1.86,9.65,3.8,11.37,5.43,2.9,2.72,.91,5.62-2.04,3.13-2.63-2.26-5.8-4.76-9.83-7.79-.59-.45-.36-1.09,.5-.77Z"/>
    <path class="cls-1" d="M28.69,154.01c.09-4.39,.09-10.96-.04-17.3l2.99,.63c.32,.09,.54,.18,.63,.32,3.99-1.27,6.61-2.45,9.6-4.21l1.95,1.9c.68,.68,.72,1.22-.18,1.49-3.26,.91-6.79,1.68-11.28,2.35v4.94h4.76c.95,0,1.45-.36,2.08-1.09l3.08,.86c1.72,.5,.5,1.86,.5,2.81v9.01c0,2.04-1.58,2.72-3.58,2.49v-1.86h-7.02c-.32,6.02-1.31,14.22-6.75,17.84-.54,.36-1.13,.05-.68-.68,3.03-4.98,3.76-10.42,3.94-19.52Zm10.51-.09v-7.38h-6.84v3.58c0,.77-.05,2.54-.09,3.8h6.93Zm16.17-3.94h-5.89c0,.59-.04,.95-.09,1.99-.23,6.29-1.49,18.39-12.95,22.33-.54,.18-1.13-.41-.45-.91,8.06-6.02,9.6-12.41,9.78-21.69,.09-4.39,.09-8.65-.04-14.99l2.81,.68c.36,.09,.68,.18,.86,.36,4.8-1.45,8.2-2.49,11.82-4.35l1.68,1.95c.72,.82,.72,1.27-.18,1.49-3.53,.86-8.02,1.72-13.22,2.35v8.33h11.41c.81,0,1.54-.54,2.4-1.54,1.09,1.09,1.9,1.63,1.9,2.4,0,1.13-1,1.58-2.63,1.58h-3.62v22.33c0,1.63-1.68,2.72-3.58,2.13v-24.46Z"/>
  </g>
  <g class="cls-4">
    <path class="cls-1" d="M17.97,43.67c.51,10.61,.68,21.22,.55,31.84-.11,5.31-.33,10.61-.38,15.92-.04,5.31,.04,10.61,.17,15.92,.15,5.31,.25,10.61,.3,15.92,.05,5.31,.12,10.61,.1,15.92-.08,10.61-.25,21.22-.73,31.84h-.15c-.48-10.61-.65-21.22-.73-31.84-.02-5.31,.04-10.61,.1-15.92,.04-5.31,.15-10.61,.3-15.92,.13-5.31,.21-10.61,.17-15.92-.06-5.31-.28-10.61-.38-15.92-.12-10.61,.05-21.22,.55-31.84h.15Z"/>
    <path class="cls-1" d="M124.4,24.3c.28,9.63,.41,19.26,.5,28.9l.08,14.45c.04,4.82-.03,9.63-.04,14.45l-.21,14.45-.11,7.22-.05,7.22c-.08,9.63,.03,19.26,.15,28.9,.15,9.63,.25,19.26,.3,28.9,.06,9.63,.12,19.26,.07,28.9-.02,19.26-.24,38.53-.7,57.79h-.15c-.47-19.26-.68-38.53-.7-57.79-.05-9.63,.01-19.26,.07-28.9,.04-9.63,.15-19.26,.3-28.9,.12-9.63,.23-19.26,.15-28.9l-.05-7.22-.11-7.22-.21-14.45c0-4.82-.08-9.63-.04-14.45l.08-14.45c.1-9.63,.23-19.26,.5-28.9h.15Z"/>
    <path class="cls-1" d="M71.18,57.74c.51,13,.68,26,.55,39-.11,6.5-.33,13-.38,19.5-.04,6.5,.04,13,.17,19.5,.15,6.5,.25,13,.3,19.5,.05,6.5,.12,13,.1,19.5-.08,13-.25,26-.73,39h-.15c-.48-13-.65-26-.73-39-.02-6.5,.04-13,.1-19.5,.04-6.5,.15-13,.3-19.5,.13-6.5,.21-13,.17-19.5-.06-6.5-.28-13-.38-19.5-.12-13,.05-26,.55-39h.15Z"/>
    <path class="cls-1" d="M196.41,24.31c.27,4.68,.43,9.36,.51,14.04,.08,4.68,.13,9.36,.04,14.04-.11,4.68-.33,9.36-.38,14.04-.06,4.68,.04,9.36,.17,14.04,.15,4.68,.25,9.36,.3,14.04,.05,4.68,.12,9.36,.1,14.04-.06,9.36-.25,18.72-.73,28.08h-.15c-.48-9.36-.67-18.72-.73-28.08-.02-4.68,.04-9.36,.1-14.04,.04-4.68,.15-9.36,.3-14.04,.13-4.68,.23-9.36,.17-14.04-.06-4.68-.28-9.36-.38-14.04-.09-4.68-.04-9.36,.04-14.04,.08-4.68,.24-9.36,.51-14.04h.15Z"/>
  </g>
  <g class="cls-5">
    <path class="cls-1" d="M91.5,143.79l-2.99-1.04c-.59,.72-1.04,1.04-1.86,1.04h-.61v2.31h2.47v9.6h-2.47v2.36h2.47v9.83h-2.47v2.35h2.47v3.13c1.95,.36,3.49-.5,3.49-2.31v-24.73c0-.81,1.09-1.99-.5-2.54Z"/>
    <path class="cls-1" d="M83.58,166.74v-9.83h2.47v-2.36h-2.47v-9.6h2.47v-2.31h-2.47c0-.27-.23-.5-.72-.59l-2.76-.5v31.84c1.95,.27,3.49-.54,3.49-2.63v-1.68h2.47v-2.35h-2.47Z"/>
    <g>
      <path class="cls-1" d="M94.45,217.5v-3.8h4.21v-2.13h-4.21v-3.8h4.21v-2.17h-4.21c-.04-.18-.18-.5-.77-.63l-2.67-.5v17.89c1.81,.27,3.44-.5,3.44-2.4v-.32h4.21v-2.13h-4.21Z"/>
      <path class="cls-1" d="M105.63,203.7l-2.76-.77c-.59,.82-1.09,1.04-1.72,1.04h-2.49v2.17h4.21v3.8h-4.21v2.13h4.21v3.8h-4.21v2.13h4.21v2.35c1.77,.32,3.44-.23,3.44-2.17v-11.87c0-.82,1.13-2.13-.68-2.63Z"/>
    </g>
  </g>
</svg>